<?xml version="1.0" encoding="utf-8"?>
<!-- Generator: Adobe Illustrator 27.5.0, SVG Export Plug-In . SVG Version: 6.00 Build 0)  -->
<svg version="1.1" xmlns="http://www.w3.org/2000/svg" xmlns:xlink="http://www.w3.org/1999/xlink" x="0px" y="0px"
	 viewBox="0 0 849 1200" style="enable-background:new 0 0 849 1200;" xml:space="preserve">
<g id="Background">
	
		<rect x="-175.5" y="175.5" transform="matrix(6.123234e-17 -1 1 6.123234e-17 -175.5 1024.5)" style="fill:#F3FFFD;" width="1200" height="849"/>
</g>
<g id="Graphic_elements">
	<g>
		<defs>
			
				<rect id="SVGID_1_" x="-175.5" y="175.5" transform="matrix(-1.836970e-16 1 -1 -1.836970e-16 1024.5 175.5)" width="1200" height="849"/>
		</defs>
		<clipPath id="SVGID_00000153676037431143025160000009649657657188913329_">
			<use xlink:href="#SVGID_1_"  style="overflow:visible;"/>
		</clipPath>
		<g style="clip-path:url(#SVGID_00000153676037431143025160000009649657657188913329_);">
			<polygon style="fill:#CFF7F1;" points="685.742,795.928 891.534,753.735 866.486,1220.17 			"/>
			<path style="fill:#E2F7F4;" d="M910.269,285.858c0.099,3.746,0.217,7.491,0.343,11.237
				c-0.868,74.018-1.875,148.034-2.934,222.049l-21.963,4.547L567.704-23.778l338.84-13.001
				c0.792,69.447,2.347,138.886,4.38,208.308C909.587,209.624,909.267,247.753,910.269,285.858z"/>
			<g>
				<path style="fill:#66B3A1;" d="M896.636-67.809c0.42,0.028,0.841,0.058,1.262,0.087l8.475,14.594
					c0.007,0.707,0.013,1.414,0.02,2.121L896.636-67.809z"/>
				<path style="fill:#66B4A2;" d="M906.575-34.186l-18.912-32.565l0.893-0.519l17.995,30.986
					C906.559-35.584,906.567-34.885,906.575-34.186z"/>
				<path style="fill:#67B5A3;" d="M906.784-17.317l-27.69-47.68l0.881-0.511l26.779,46.112
					C906.764-18.703,906.775-18.01,906.784-17.317z"/>
				<path style="fill:#68B6A4;" d="M907.023-0.398l-36.496-62.843l0.867-0.503l35.6,61.301
					C907.004-1.762,907.012-1.08,907.023-0.398z"/>
				<path style="fill:#68B6A5;" d="M907.298,16.581l-45.338-78.069l0.853-0.496l44.452,76.543
					C907.276,15.233,907.286,15.907,907.298,16.581z"/>
				<path style="fill:#68B7A6;" d="M907.597,33.606l-54.206-93.339l0.84-0.488l53.33,91.829
					C907.573,32.273,907.585,32.94,907.597,33.606z"/>
				<path style="fill:#69B8A7;" d="M907.921,50.672L844.823-57.98l0.827-0.48l62.231,107.158
					C907.894,49.356,907.908,50.014,907.921,50.672z"/>
				<path style="fill:#69B9A8;" d="M908.273,67.784L836.255-56.225l0.814-0.473L908.233,65.84
					C908.246,66.488,908.258,67.136,908.273,67.784z"/>
				<path style="fill:#6ABAA9;" d="M908.656,84.951L827.687-54.471l0.801-0.465l80.125,137.969
					C908.627,83.672,908.641,84.312,908.656,84.951z"/>
				<path style="fill:#6ABBAA;" d="M909.061,102.156L819.119-52.717l0.787-0.457l89.109,153.439
					C909.031,100.895,909.046,101.526,909.061,102.156z"/>
				<path style="fill:#6BBCAB;" d="M909.489,119.401L810.551-50.963l0.773-0.449l98.116,168.948
					C909.456,118.158,909.473,118.779,909.489,119.401z"/>
				<path style="fill:#6CBDAC;" d="M909.94,136.684L801.984-49.209l0.761-0.442L909.892,134.85
					C909.908,135.461,909.924,136.073,909.94,136.684z"/>
				<path style="fill:#6CBEAD;" d="M904.383,746.889l-3.78,5.146l3.587,8.42c-0.01,0.711-0.021,1.423-0.03,2.134l-4.449-10.442
					l-0.097-0.227l4.789-6.52C904.397,745.897,904.389,746.393,904.383,746.889z"/>
				<path style="fill:#6CBEAD;" d="M910.42,154.018L793.414-47.455l0.748-0.434l116.207,200.1
					C910.386,152.814,910.403,153.416,910.42,154.018z"/>
				<path style="fill:#6DBFAE;" d="M904.526,736.764l-12.507,17.027l11.871,27.863c-0.01,0.699-0.02,1.397-0.03,2.096
					l-12.717-29.848l-0.095-0.223l13.498-18.377C904.54,735.79,904.533,736.277,904.526,736.764z"/>
				<path style="fill:#6DBFAE;" d="M910.919,171.386L784.847-45.7l0.734-0.427l125.285,215.732
					C910.884,170.199,910.902,170.793,910.919,171.386z"/>
				<path style="fill:#6DC0AF;" d="M904.67,726.641l-21.234,28.907l20.16,47.32c-0.009,0.687-0.018,1.375-0.028,2.062
					l-20.993-49.274l-0.093-0.219l22.208-30.233C904.683,725.684,904.677,726.163,904.67,726.641z"/>
				<path style="fill:#6DC0AF;" d="M910.435,187.06L776.279-43.946L777-44.365l133.481,229.843
					C910.466,186.005,910.449,186.533,910.435,187.06z"/>
				<path style="fill:#6EC1B0;" d="M904.814,716.516l-29.962,40.789l28.456,66.793c-0.009,0.674-0.018,1.348-0.027,2.022
					l-29.273-68.709l-0.092-0.215l30.918-42.091C904.827,715.576,904.82,716.046,904.814,716.516z"/>
				<path style="fill:#6EC1B0;" d="M910.056,202.916L767.711-42.192l0.707-0.411l141.667,243.94
					C910.074,201.863,910.067,202.389,910.056,202.916z"/>
				<path style="fill:#6EC2B1;" d="M904.961,706.388l-38.692,52.675l36.752,86.266c-0.009,0.661-0.018,1.322-0.027,1.984
					l-37.553-88.145l-0.09-0.21l39.63-53.951C904.974,705.466,904.968,705.927,904.961,706.388z"/>
				<path style="fill:#6EC2B1;" d="M909.811,219L759.144-40.438l0.694-0.403l149.99,258.271
					C909.821,217.953,909.817,218.476,909.811,219z"/>
				<path style="fill:#6EC2B2;" d="M905.108,696.259l-47.423,64.561l45.051,105.743c-0.008,0.65-0.016,1.301-0.024,1.951
					l-45.839-107.592l-0.088-0.207l48.343-65.813C905.121,695.354,905.115,695.807,905.108,696.259z"/>
				<path style="fill:#6EC2B2;" d="M909.692,235.305L750.574-38.683l0.682-0.396l158.443,272.827
					C909.698,234.268,909.693,234.786,909.692,235.305z"/>
				<path style="fill:#6FC3B3;" d="M905.255,686.131l-56.153,76.446l53.365,125.259c-0.008,0.638-0.016,1.275-0.024,1.913
					l-54.138-127.071l-0.086-0.203l57.056-77.674C905.268,685.244,905.261,685.688,905.255,686.131z"/>
				<path style="fill:#6FC3B3;" d="M909.722,251.862L742.007-36.929l0.668-0.388l167.033,287.618
					C909.711,250.822,909.719,251.342,909.722,251.862z"/>
				<path style="fill:#70C4B4;" d="M905.403,676.003l-64.884,88.331l61.679,144.773c-0.008,0.626-0.016,1.252-0.024,1.878
					l-62.437-146.553l-0.084-0.199l65.768-89.535C905.415,675.133,905.408,675.568,905.403,676.003z"/>
				<path style="fill:#70C4B4;" d="M909.916,268.705L733.439-35.175l0.654-0.38l175.799,302.712
					C909.9,267.673,909.907,268.189,909.916,268.705z"/>
				<path style="fill:#70C5B5;" d="M905.549,665.874l-73.615,100.217l69.994,164.291c-0.007,0.612-0.016,1.224-0.023,1.836
					l-70.819-166.225l74.481-101.396C905.562,665.022,905.556,665.448,905.549,665.874z"/>
				<path style="fill:#70C5B5;" d="M910.268,285.817L724.871-33.421l0.641-0.373l184.721,318.075
					C910.246,284.794,910.255,285.306,910.268,285.817z"/>
				<path style="fill:#71C6B6;" d="M905.696,655.746l-82.345,112.102l78.326,183.847c-0.007,0.601-0.013,1.202-0.021,1.803
					l-79.054-185.556l-0.081-0.19l83.193-113.257C905.709,654.912,905.702,655.329,905.696,655.746z"/>
				<path style="fill:#71C6B6;" d="M910.541,302.798L716.303-31.667l0.628-0.365l193.628,333.413
					C910.553,301.854,910.547,302.326,910.541,302.798z"/>
				<path style="fill:#71C7B7;" d="M905.844,645.617l-91.076,123.988l86.665,203.421c-0.007,0.588-0.014,1.177-0.02,1.765
					l-87.379-205.094l-0.079-0.186l91.906-125.12C905.856,644.8,905.85,645.209,905.844,645.617z"/>
				<path style="fill:#71C7B7;" d="M910.346,318.968L707.735-29.912l0.615-0.357l202.013,347.85
					C910.357,318.043,910.351,318.506,910.346,318.968z"/>
				<path style="fill:#72C8B8;" d="M905.991,635.488l-99.807,135.874l95.004,222.995c-0.006,0.576-0.013,1.152-0.02,1.729
					l-95.702-224.633l-0.077-0.182l100.619-136.981C906.003,634.689,905.997,635.088,905.991,635.488z"/>
				<path style="fill:#72C8B8;" d="M910.15,335.139L699.167-28.158l0.602-0.35l210.398,362.289
					C910.161,334.234,910.156,334.686,910.15,335.139z"/>
				<path style="fill:#72C9B9;" d="M906.139,625.358L797.601,773.119l103.352,242.589c-0.006,0.565-0.011,1.129-0.017,1.694
					L796.9,773.207l-0.076-0.178l109.333-148.844C906.151,624.576,906.145,624.967,906.139,625.358z"/>
				<path style="fill:#72C9B9;" d="M909.955,351.309L690.599-26.404l0.588-0.342l218.784,376.729
					C909.965,350.425,909.96,350.867,909.955,351.309z"/>
				<path style="fill:#73CABA;" d="M909.748,367.459L682.031-24.65l0.574-0.334l227.159,391.151
					C909.76,366.598,909.753,367.028,909.748,367.459z"/>
				<path style="fill:#73CABA;" d="M906.287,615.229L789.018,774.876l111.722,262.233c-0.005,0.552-0.011,1.105-0.017,1.657
					L788.332,774.962l-0.074-0.174l118.046-160.705C906.298,614.465,906.293,614.847,906.287,615.229z"/>
				<path style="fill:#74CBBB;" d="M906.435,605.099l-126,171.534l120.091,281.877c-0.005,0.54-0.011,1.079-0.016,1.619
					L779.765,776.718l-0.072-0.171L906.451,603.98C906.446,604.353,906.441,604.726,906.435,605.099z"/>
				<path style="fill:#74CBBB;" d="M909.536,383.604l-236.074-406.5l0.563-0.326l235.528,405.561
					C909.547,382.76,909.541,383.182,909.536,383.604z"/>
				<path style="fill:#74CCBC;" d="M906.583,594.97L771.851,778.39l128.461,301.523c-0.005,0.527-0.011,1.055-0.016,1.583
					l-129.1-303.023l-0.07-0.166l135.473-184.429C906.594,594.242,906.588,594.606,906.583,594.97z"/>
				<path style="fill:#74CCBC;" d="M909.324,399.747L664.895-21.142l0.549-0.318L909.34,398.51
					C909.335,398.922,909.329,399.335,909.324,399.747z"/>
				<path style="fill:#75CDBD;" d="M909.112,415.889L656.327-19.387l0.535-0.311l252.265,434.382
					C909.122,415.086,909.117,415.488,909.112,415.889z"/>
				<path style="fill:#75CDBD;" d="M906.731,584.84L763.268,780.147L900.13,1101.39c-0.004,0.516-0.008,1.033-0.013,1.549
					L762.629,780.227l-0.068-0.162l144.185-196.292C906.741,584.129,906.736,584.484,906.731,584.84z"/>
				<path style="fill:#75CEBE;" d="M906.879,574.711L754.684,781.904l145.269,340.974c-0.004,0.503-0.008,1.007-0.012,1.51
					L754.062,781.982l-0.067-0.158L906.894,573.67L906.879,574.711z"/>
				<path style="fill:#75CEBE;" d="M908.897,432.027L647.759-17.633l0.522-0.303l260.633,448.79
					C908.908,431.245,908.903,431.636,908.897,432.027z"/>
				<path style="fill:#76CFBF;" d="M907.025,564.584L746.101,783.661l153.674,360.703c-0.004,0.491-0.008,0.982-0.012,1.474
					L745.494,783.737l-0.065-0.154l161.61-220.011C907.034,563.91,907.029,564.247,907.025,564.584z"/>
				<path style="fill:#76CFBF;" d="M908.673,448.148L639.191-15.878l0.509-0.295l268.99,463.178
					C908.684,447.386,908.678,447.767,908.673,448.148z"/>
				<path style="fill:#76CFC0;" d="M908.449,464.27L630.622-14.125l0.496-0.288l277.346,477.569
					C908.46,463.528,908.454,463.899,908.449,464.27z"/>
				<path style="fill:#76CFC0;" d="M907.17,554.457L737.517,785.418l162.102,380.485c-0.003,0.48-0.005,0.961-0.009,1.441
					L736.926,785.493l-0.064-0.15L907.184,553.47C907.179,553.799,907.175,554.128,907.17,554.457z"/>
				<path style="fill:#77D0C1;" d="M907.316,544.332L728.934,787.175l170.55,400.314c-0.003,0.467-0.006,0.934-0.009,1.402
					L728.359,787.247l-0.061-0.146L907.329,543.37C907.325,543.691,907.32,544.011,907.316,544.332z"/>
				<path style="fill:#77D0C1;" d="M908.225,480.393L622.055-12.37l0.482-0.28L908.24,479.308
					C908.235,479.67,908.23,480.031,908.225,480.393z"/>
				<path style="fill:#77D1C2;" d="M908.001,496.514L613.487-10.616l0.469-0.273l294.06,506.349
					C908.011,495.812,908.006,496.163,908.001,496.514z"/>
				<path style="fill:#77D1C2;" d="M907.461,534.204l-187.11,254.729l178.998,420.143c-0.003,0.455-0.006,0.909-0.008,1.364
					L719.792,789.003l-0.06-0.143l187.743-255.59C907.47,533.581,907.466,533.893,907.461,534.204z"/>
				<path style="fill:#78D2C3;" d="M907.607,524.078l-195.84,266.61l187.452,439.988c-0.002,0.443-0.003,0.887-0.005,1.33
					l-187.99-441.25l-0.059-0.138L907.62,523.17C907.616,523.473,907.612,523.776,907.607,524.078z"/>
				<path style="fill:#78D2C3;" d="M907.772,512.627L604.919-8.862l0.455-0.265l302.412,520.73
					C907.781,511.945,907.777,512.286,907.772,512.627z"/>
				<path style="fill:#78D3C4;" d="M903.169,520.191L703.184,792.446l195.949,459.933c-0.002,0.431-0.003,0.861-0.005,1.292
					L702.656,792.513l-0.057-0.134l199.958-272.221L596.352-7.108l0.442-0.257l306.29,527.411L903.169,520.191z"/>
				<path style="fill:#79D4C5;" d="M892.457,1259.877l-198.369-465.61l-0.055-0.13l199.96-272.221L587.782-5.354l0.43-0.249
					l306.292,527.411l0.081,0.141L694.6,794.203l198.396,465.671C892.816,1259.875,892.636,1259.876,892.457,1259.877z"/>
				<path style="fill:#79D5C6;" d="M883.173,1259.952L685.522,796.023l-0.055-0.126l199.961-272.221L579.215-3.6l0.416-0.241
					L885.923,523.57l0.079,0.136L686.018,795.96l197.674,463.984C883.519,1259.946,883.346,1259.95,883.173,1259.952z"/>
			</g>
			<path style="fill:#E2F7F4;" d="M-38.885,68.606L-1.626-39.525c12.718-0.32,25.434-0.669,38.149-1.064
				c43.409-0.372,86.816-0.94,130.22-1.685L206.381,0c0,0-200.202,277.967-204.31,277.155
				C-2.037,276.343-38.885,68.606-38.885,68.606z"/>
			<path style="fill:#E2F7F4;" d="M-70.414,1233.376c-0.958-43.804-0.411-87.648-0.337-131.456
				c0.134-79.47,0.345-158.942,0.344-238.413c0.894-44.529,1.524-89.053,2.023-133.579l258.007-35.647L-27.21,953.006
				L-38.3,1233.237C-49.004,1233.258-59.709,1233.308-70.414,1233.376z"/>
			<g>
				<path style="fill:#6ABAA9;" d="M-68.466,736.878l6.681-7.943l-6.394-18.248c0.009-0.906,0.019-1.812,0.028-2.718l7.326,20.91
					l0.088,0.249l-7.747,9.211C-68.478,737.851-68.471,737.365-68.466,736.878z"/>
				<path style="fill:#6ABBAA;" d="M-68.576,746.141l15.472-18.395l-14.817-42.289c0.009-0.894,0.017-1.788,0.025-2.682
					l15.737,44.915l0.086,0.245l-16.52,19.642C-68.588,747.097-68.582,746.619-68.576,746.141z"/>
				<path style="fill:#6BBCAB;" d="M-68.686,755.403l24.263-28.847l-23.259-66.385c0.008-0.879,0.017-1.757,0.025-2.636
					l24.163,68.966l0.085,0.241l-25.293,30.072C-68.697,756.344-68.692,755.873-68.686,755.403z"/>
				<path style="fill:#6CBDAC;" d="M-68.8,764.669l33.057-39.303l-31.712-90.509c0.008-0.865,0.016-1.73,0.023-2.595l32.602,93.05
					l0.083,0.237l-34.072,40.511C-68.813,765.596-68.805,765.133-68.8,764.669z"/>
				<path style="fill:#6CBEAD;" d="M-68.928,773.953l41.865-49.776L-67.23,609.536c0.008-0.85,0.015-1.701,0.023-2.551
					l41.041,117.138l0.081,0.233l-42.862,50.962C-68.941,774.863-68.934,774.408-68.928,773.953z"/>
				<path style="fill:#6DBFAE;" d="M-69.057,783.237l50.674-60.249l-48.622-138.776c0.005-0.569,0.01-1.138,0.015-1.708
					c0.002-0.265,0.005-0.53,0.007-0.795l49.482,141.227l0.08,0.228l-51.654,61.414C-69.069,784.131-69.063,783.684-69.057,783.237z
					"/>
				<path style="fill:#6DC0AF;" d="M-69.185,792.522l59.483-70.723l-57.078-162.908c0.007-0.82,0.015-1.639,0.022-2.459
					l57.921,165.315l0.078,0.224l-60.445,71.866C-69.197,793.399-69.192,792.961-69.185,792.522z"/>
				<path style="fill:#6EC1B0;" d="M-69.32,801.813l68.298-81.204l-65.532-187.039c0.007-0.804,0.014-1.607,0.021-2.411
					l66.436,189.619l-69.245,82.33C-69.335,802.677-69.327,802.245-69.32,801.813z"/>
				<path style="fill:#6EC2B1;" d="M-69.472,811.123L7.658,719.42l-73.987-211.17c0.007-0.79,0.013-1.581,0.02-2.371L8.492,719.37
					l0.076,0.216l-78.06,92.81C-69.486,811.972-69.478,811.548-69.472,811.123z"/>
				<path style="fill:#6EC2B2;" d="M-69.623,820.435l85.961-102.205l-82.451-235.326c0.007-0.776,0.013-1.552,0.02-2.329
					l83.249,237.606l0.074,0.212l-86.875,103.29C-69.637,821.268-69.63,820.852-69.623,820.435z"/>
				<path style="fill:#6FC3B3;" d="M-69.775,829.747l94.794-112.706l-90.915-259.483c0.006-0.76,0.013-1.52,0.02-2.28
					l91.697,261.716l0.073,0.207l-95.689,113.769C-69.788,830.563-69.782,830.155-69.775,829.747z"/>
				<path style="fill:#6FC3B3;" d="M-64.595,1233.339l-6.067-12.233c-0.009-0.598-0.018-1.195-0.027-1.792l6.953,14.02
					C-64.023,1233.336-64.309,1233.338-64.595,1233.339z"/>
				<path style="fill:#70C4B4;" d="M-55.348,1233.293l-15.538-31.33l-0.013-1.73l16.394,33.056
					C-54.786,1233.291-55.067,1233.292-55.348,1233.293z"/>
				<path style="fill:#70C4B4;" d="M-69.938,839.071L33.699,715.852l-99.381-283.648c0.006-0.746,0.012-1.493,0.018-2.24
					L34.485,715.805l0.071,0.204L-69.961,840.275C-69.954,839.874-69.945,839.472-69.938,839.071z"/>
				<path style="fill:#70C5B5;" d="M-70.117,848.416L42.379,714.663l-107.86-307.849c0.006-0.73,0.012-1.461,0.018-2.192
					L43.149,714.618l0.07,0.2L-70.139,849.596C-70.132,849.203-70.124,848.809-70.117,848.416z"/>
				<path style="fill:#70C5B5;" d="M-46.097,1233.252l-24.878-50.165l-0.003-1.675l25.708,51.839
					C-45.546,1233.251-45.821,1233.251-46.097,1233.252z"/>
				<path style="fill:#71C6B6;" d="M-70.296,857.761L51.06,713.474L-65.279,381.426c0.005-0.716,0.011-1.432,0.017-2.148
					L51.814,713.429l0.068,0.195l-122.2,145.291C-70.311,858.53-70.303,858.145-70.296,857.761z"/>
				<path style="fill:#71C6B6;" d="M-36.835,1233.234l-34.139-68.836c0.001-0.542,0.003-1.085,0.003-1.627l34.945,70.461
					C-36.295,1233.233-36.565,1233.233-36.835,1233.234z"/>
				<path style="fill:#71C7B7;" d="M59.741,712.285L-65.086,356.013c0.005-0.703,0.01-1.405,0.015-2.108l125.55,358.336l0.066,0.191
					L-70.403,868.123c0-0.368,0-0.737,0-1.105L59.741,712.285z"/>
				<path style="fill:#71C7B7;" d="M-27.569,1233.225l-43.346-87.402c0.002-0.529,0.004-1.058,0.007-1.588l44.134,88.99
					C-27.039,1233.226-27.304,1233.225-27.569,1233.225z"/>
				<path style="fill:#72C8B8;" d="M68.42,711.095L-64.905,330.563c0.005-0.687,0.01-1.374,0.015-2.062L69.142,711.052l0.065,0.188
					L-70.405,877.233c0-0.361,0-0.721,0.001-1.082L68.42,711.095z"/>
				<path style="fill:#72C8B8;" d="M-18.292,1233.237l-52.543-105.946c0.002-0.518,0.004-1.035,0.006-1.553l53.314,107.5
					C-17.774,1233.238-18.033,1233.238-18.292,1233.237z"/>
				<path style="fill:#72C9B9;" d="M77.101,709.906L-64.725,305.115c0.004-0.672,0.01-1.345,0.014-2.017L77.807,709.864l0.063,0.183
					L-70.408,886.344c0-0.352,0-0.704,0-1.056L77.101,709.906z"/>
				<path style="fill:#72C9B9;" d="M-9.004,1233.273l-61.764-124.539c0.001-0.508,0.002-1.015,0.004-1.523l62.521,126.066
					C-8.496,1233.276-8.75,1233.274-9.004,1233.273z"/>
				<path style="fill:#73CABA;" d="M85.782,708.717l-150.343-429.1c0.004-0.659,0.008-1.318,0.012-1.977l151.02,431.036l0.063,0.179
					L-70.412,895.456c0.001-0.345,0.001-0.689,0.001-1.034L85.782,708.717z"/>
				<path style="fill:#73CABA;" d="M0.291,1233.322l-71.021-143.206c0.001-0.497,0.001-0.995,0.002-1.492l71.764,144.703
					C0.788,1233.326,0.54,1233.324,0.291,1233.322z"/>
				<path style="fill:#74CBBB;" d="M94.461,707.527l-158.87-453.44c0.003-0.644,0.007-1.287,0.011-1.931L95.136,707.487l0.062,0.175
					L-70.42,904.574c0-0.337,0.001-0.674,0.001-1.011L94.461,707.527z"/>
				<path style="fill:#74CBBB;" d="M9.608,1233.413l-80.304-161.923c0.001-0.486,0.002-0.971,0.003-1.457l81.029,163.387
					C10.094,1233.418,9.851,1233.416,9.608,1233.413z"/>
				<path style="fill:#74CCBC;" d="M103.141,706.338L-64.256,228.559c0.003-0.628,0.008-1.256,0.011-1.884l168.044,479.623
					l0.061,0.171L-70.429,913.69c0.001-0.329,0.001-0.657,0.001-0.986L103.141,706.338z"/>
				<path style="fill:#74CCBC;" d="M18.932,1233.521l-89.592-180.651c0.001-0.474,0.001-0.948,0.002-1.421l90.302,182.084
					C19.408,1233.528,19.17,1233.524,18.932,1233.521z"/>
				<path style="fill:#75CDBD;" d="M111.822,705.149L-64.131,202.953c0.003-0.616,0.005-1.231,0.009-1.847L112.464,705.11
					l0.059,0.167l-182.96,217.531c0-0.321,0-0.641,0.001-0.962L111.822,705.149z"/>
				<path style="fill:#75CDBD;" d="M28.274,1233.664l-98.898-199.415c0.001-0.463,0.002-0.925,0.003-1.388l99.591,200.813
					C28.738,1233.671,28.506,1233.668,28.274,1233.664z"/>
				<path style="fill:#75CEBE;" d="M120.502,703.959L-64.013,177.327c0.003-0.602,0.006-1.203,0.008-1.805l185.134,528.4
					l0.057,0.162L-70.447,931.928c0.001-0.313,0.001-0.627,0.002-0.94L120.502,703.959z"/>
				<path style="fill:#75CEBE;" d="M37.634,1233.844l-108.221-218.216c0.001-0.451,0.002-0.902,0.002-1.353l108.9,219.584
					C38.088,1233.854,37.861,1233.849,37.634,1233.844z"/>
				<path style="fill:#76CFBF;" d="M129.182,702.77L-63.895,151.698c0.003-0.586,0.005-1.173,0.007-1.759l193.681,552.795
					l0.056,0.158L-70.461,941.051l0.002-0.915L129.182,702.77z"/>
				<path style="fill:#76CFBF;" d="M47.004,1234.046L-70.552,997.007c0.001-0.44,0.002-0.879,0.002-1.319l118.219,238.374
					C47.448,1234.056,47.226,1234.052,47.004,1234.046z"/>
				<path style="fill:#76CFC0;" d="M137.863,701.581l-201.68-575.624c0.001-0.573,0.003-1.146,0.005-1.719l202.27,577.308
					l0.054,0.154L-70.474,950.174l0.002-0.891L137.863,701.581z"/>
				<path style="fill:#76CFC0;" d="M56.406,1234.31L-70.519,978.381c0-0.428,0.001-0.857,0.002-1.285l127.572,257.232
					C56.839,1234.323,56.622,1234.317,56.406,1234.31z"/>
				<path style="fill:#77D0C1;" d="M65.821,1234.599L-70.487,959.751c0.001-0.441,0.001-0.882,0.002-1.322l217.029-258.037
					L-63.741,100.208c0.001-0.557,0.004-1.113,0.005-1.67l210.857,601.82l0.053,0.15L-70.237,959l136.692,275.622
					C66.243,1234.615,66.032,1234.606,65.821,1234.599z"/>
				<path style="fill:#77D1C2;" d="M75.26,1234.94L-62.139,957.89l-0.079-0.159l217.442-258.528L-62.013,79.175l0.512-0.179
					l217.288,620.173l0.051,0.146L-61.574,957.808l137.451,277.154C75.672,1234.954,75.466,1234.948,75.26,1234.94z"/>
				<path style="fill:#78D2C3;" d="M84.719,1235.321L-53.462,956.696l-0.076-0.155l217.441-258.528L-53.336,77.981l0.498-0.174
					l217.288,620.174l0.049,0.142L-52.913,956.616l138.233,278.73C85.12,1235.337,84.92,1235.329,84.719,1235.321z"/>
				<path style="fill:#78D3C4;" d="M94.208,1235.76L-44.783,955.501l-0.074-0.15l217.441-258.528L-44.656,76.787l0.482-0.169
					l217.288,620.174l0.049,0.138L-44.25,955.424l139.044,280.364C94.599,1235.778,94.404,1235.77,94.208,1235.76z"/>
				<path style="fill:#79D4C5;" d="M103.726,1236.256l-139.83-281.949l-0.071-0.146l217.439-258.527L-35.977,75.594l0.469-0.164
					L181.78,695.604l0.047,0.133L-35.588,954.232l139.882,282.054C104.105,1236.276,103.915,1236.266,103.726,1236.256z"/>
				<path style="fill:#79D5C6;" d="M113.271,1236.811L-27.425,953.113l-0.069-0.141l217.44-258.526L-27.298,74.401l0.453-0.159
					l217.288,620.174l0.046,0.129L-26.924,953.04l140.75,283.806C113.641,1236.834,113.455,1236.822,113.271,1236.811z"/>
			</g>
		</g>
	</g>
</g>
</svg>
