<svg width="158" height="144" viewBox="0 0 158 144" fill="none" xmlns="http://www.w3.org/2000/svg">
<path d="M81.782 129.733C3.60901 129.733 13.272 72.0748 13.272 72.0748C24.691 30.4188 62.459 17.6978 81.782 17.6978C101.106 17.6978 138.873 30.4188 150.293 72.0748C150.293 72.0748 159.955 129.733 81.782 129.733Z" fill="white"/>
<path d="M75.5359 19.4476C75.5359 18.9966 75.513 18.5496 75.498 18.0996C57.331 20.2696 30.102 31.7366 17.2 60.9826C20.621 61.6796 24.1759 62.0586 27.8319 62.0586C54.1779 62.0586 75.5359 42.9806 75.5359 19.4476Z" fill="#261E1C"/>
<path d="M150.293 72.0736C148.479 65.4546 145.994 59.5736 143.03 54.3506C142.916 83.0906 130.92 108.794 112.08 126.025C157.194 113.289 150.293 72.0736 150.293 72.0736Z" fill="#F6ECE2"/>
<path d="M82.98 17.7227C82.877 18.9787 82.811 20.2447 82.811 21.5277C82.811 46.8967 103.425 67.4637 128.852 67.4637C135.464 67.4637 141.745 66.0637 147.429 63.5597C133.831 29.4277 101.184 18.1917 82.98 17.7227Z" fill="#F4B774"/>
<path d="M147.428 63.5587C146.127 60.2927 144.65 57.2428 143.03 54.3848C143.014 58.1188 142.797 61.8028 142.391 65.4218C144.113 64.8928 145.797 64.2757 147.428 63.5587Z" fill="#D8954F"/>
<path d="M97.405 19.8929C97.405 19.8929 132.074 -0.962106 137.536 1.76789C142.997 4.49989 148.117 40.1939 145.558 59.2109C145.558 59.2109 109.616 52.1249 97.405 19.8929Z" fill="#F4B774"/>
<path d="M137.535 1.76782C137.398 1.69982 137.238 1.65082 137.066 1.61182C142.081 12.9638 144.908 25.7738 144.908 39.3368C144.908 45.9538 144.234 52.3938 142.963 58.5728C144.604 59.0238 145.557 59.2118 145.557 59.2118C148.117 40.1938 142.997 4.49982 137.535 1.76782Z" fill="#D8954F"/>
<path d="M136.438 5.73083C134.926 2.97083 117.331 32.2308 121.821 34.4238C131.376 39.0898 135.45 44.2458 142.339 53.1488C144.487 55.9238 141.219 14.4588 136.438 5.73083Z" fill="#FE6661"/>
<path d="M66.159 19.8929C66.159 19.8929 31.491 -0.962106 26.029 1.76789C20.567 4.49989 15.448 40.1939 18.008 59.2109C18.008 59.2109 53.949 52.1249 66.159 19.8929Z" fill="#261E1C"/>
<path d="M151.74 71.6758C150.467 67.1288 148.824 62.7268 146.828 58.4508C146.264 59.1848 145.699 59.9198 145.135 60.6538C145.143 60.6538 145.151 60.6558 145.159 60.6578C146.208 60.8258 146.923 60.2458 147.057 59.2108C148.425 48.6758 147.714 37.8128 146.44 27.3048C145.839 22.3498 145.039 17.4118 143.894 12.5528C143.114 9.2388 142.191 5.7618 140.466 2.7948C137.561 -2.2072 131.244 0.884778 127.148 2.57178C119.571 5.69278 112.327 9.64778 105.19 13.6538C102.322 15.2648 99.466 16.9018 96.648 18.5968C95.914 19.0378 95.741 19.9118 96.11 20.6478C96.111 20.6518 96.112 20.6538 96.114 20.6558C96.678 19.9218 97.243 19.1868 97.807 18.4528C87.019 15.6948 76.545 15.6948 65.757 18.4528C66.372 19.0678 66.987 19.6828 67.602 20.2988C67.603 20.2968 67.604 20.2928 67.605 20.2908C67.84 19.6638 67.454 18.9198 66.916 18.5978C62.618 16.0138 58.246 13.5488 53.844 11.1488C46.894 7.35777 39.749 3.47078 32.203 0.994783C30.163 0.324783 27.497 -0.517202 25.413 0.410798C23.28 1.3598 22.274 4.2698 21.517 6.2648C18.141 15.1648 17.156 25.2548 16.374 34.6668C15.698 42.7998 15.455 51.1028 16.508 59.2118C16.642 60.2448 17.358 60.8288 18.407 60.6588C18.415 60.6568 18.423 60.6548 18.431 60.6548C17.866 59.9208 17.302 59.1858 16.737 58.4518C14.46 63.3308 12.018 68.5628 11.553 74.0008C11.292 77.0458 11.357 80.1198 11.646 83.1608C12.644 93.6728 16.692 103.684 23.779 111.573C35.33 124.428 53.08 129.243 69.708 130.733C89.671 132.524 112.398 130.919 129.778 119.942C145.524 109.997 154.293 90.9398 151.85 72.4598C151.815 72.1978 151.783 71.9358 151.74 71.6758C151.424 69.7698 148.533 70.5798 148.847 72.4728C148.863 72.5668 148.875 72.6628 148.889 72.7558C148.809 72.1798 148.927 73.0978 148.954 73.3638C149.069 74.4848 149.129 75.6098 149.158 76.7368C149.254 80.4668 148.936 84.2058 148.227 87.8678C146.009 99.3208 139.638 109.39 130.085 116.134C113.256 128.011 90.248 129.341 70.416 127.794C53.623 126.481 35.869 121.384 24.668 108.036C18.664 100.88 15.375 91.6938 14.58 82.4518C14.342 79.6838 14.321 76.8868 14.542 74.1178C14.571 73.7468 14.607 73.3758 14.648 73.0068C14.722 72.3468 14.659 72.8658 14.693 72.6338C15.311 68.3678 17.521 63.8348 19.326 59.9658C19.909 58.7158 18.969 57.5438 17.632 57.7628C17.624 57.7628 17.616 57.7648 17.608 57.7668C18.241 58.2488 18.874 58.7298 19.507 59.2118C18.139 48.6768 18.849 37.8138 20.124 27.3058C20.734 22.2748 21.587 17.2548 22.812 12.3348C23.519 9.49678 24.265 5.8878 26.192 3.5708C27.227 2.3288 29.865 3.39878 31.405 3.88678C35.006 5.02978 38.455 6.66578 41.848 8.30878C48.763 11.6568 55.492 15.4028 62.133 19.2618C63.226 19.8968 64.318 20.5348 65.401 21.1878C65.172 20.6228 64.942 20.0588 64.712 19.4948C64.711 19.4968 64.71 19.4988 64.709 19.5028C64.291 20.6158 65.53 21.6078 66.554 21.3468C76.837 18.7178 86.725 18.7178 97.009 21.3468C98.339 21.6868 99.284 20.3058 98.702 19.1438C98.701 19.1418 98.7 19.1378 98.698 19.1358C98.519 19.8198 98.34 20.5048 98.16 21.1888C102.458 18.6048 106.831 16.1398 111.232 13.7398C118.142 9.97178 125.281 5.98178 132.841 3.67478C134.551 3.15278 136.543 2.38579 137.58 3.84879C139.487 6.54179 140.237 10.2078 140.999 13.3508C143.525 23.7848 144.534 34.6988 144.718 45.4138C144.797 50.0168 144.649 54.6418 144.055 59.2128C144.688 58.7308 145.321 58.2498 145.953 57.7678C145.945 57.7658 145.937 57.7638 145.929 57.7638C144.593 57.5488 143.651 58.7128 144.236 59.9668C146.123 64.0098 147.641 68.1798 148.845 72.4748C149.368 74.3318 152.263 73.5408 151.74 71.6758Z" fill="#8B0702"/>
<path d="M27.127 5.73083C28.638 2.97083 46.235 32.2308 41.744 34.4238C32.189 39.0898 28.115 44.2458 21.225 53.1488C19.078 55.9238 22.346 14.4588 27.127 5.73083Z" fill="#FE6661"/>
<path d="M91.049 86.5689C90.459 83.0809 85.195 81.1509 81.782 81.1509C78.369 81.1509 73.106 83.0809 72.515 86.5689C72.005 89.5849 77.046 94.4929 81.782 94.4929C87.268 94.4919 91.559 89.5839 91.049 86.5689Z" fill="#8B0702"/>
<path d="M135.144 85.1654C135.144 88.8104 132.189 91.7654 128.544 91.7654C124.899 91.7654 121.945 88.8104 121.945 85.1654C121.945 81.5204 124.899 78.5654 128.544 78.5654C132.189 78.5654 135.144 81.5214 135.144 85.1654Z" fill="#FE6661"/>
<path d="M128.943 84.7513C135.964 83.7203 142.986 82.6883 150.007 81.6573C151.916 81.3783 151.102 78.4873 149.21 78.7643C142.189 79.7953 135.167 80.8273 128.146 81.8583C126.237 82.1383 127.051 85.0293 128.943 84.7513Z" fill="#8B0702"/>
<path d="M128.544 89.4953C134.764 90.2983 140.983 91.0993 147.203 91.9013C149.118 92.1473 149.094 89.1453 147.203 88.9013C140.983 88.0983 134.764 87.2983 128.544 86.4953C126.629 86.2493 126.654 89.2513 128.544 89.4953Z" fill="#8B0702"/>
<path d="M113.05 64.8687H113.049C106.094 64.8687 100.456 70.5057 100.456 77.4607C100.456 84.4157 106.094 90.0527 113.049 90.0527C120.004 90.0527 125.643 84.4157 125.643 77.4607C125.643 75.4727 125.169 73.6017 124.35 71.9297C119.016 70.4567 115.415 67.6157 113.05 64.8687Z" fill="#8B0702"/>
<path d="M116.11 75.1058C116.11 78.3948 113.444 81.0588 110.157 81.0588C106.871 81.0588 104.205 78.3948 104.205 75.1058C104.205 71.8188 106.871 69.1548 110.157 69.1548C113.444 69.1548 116.11 71.8188 116.11 75.1058Z" fill="white"/>
<path d="M118.464 83.1098C118.464 84.4108 117.409 85.4648 116.11 85.4648C114.809 85.4648 113.755 84.4098 113.755 83.1098C113.755 81.8108 114.81 80.7578 116.11 80.7578C117.41 80.7578 118.464 81.8108 118.464 83.1098Z" fill="white"/>
<path d="M107.546 58.3208C110.892 69.5628 123.075 74.7818 133.93 74.4208C135.86 74.3568 135.865 71.3568 133.93 71.4208C124.422 71.7368 113.384 67.4188 110.439 57.5248C109.888 55.6738 106.993 56.4628 107.546 58.3208Z" fill="#8B0702"/>
<path d="M28.1071 85.1654C28.1071 88.8104 31.062 91.7654 34.707 91.7654C38.351 91.7654 41.3061 88.8104 41.3061 85.1654C41.3061 81.5204 38.351 78.5654 34.707 78.5654C31.061 78.5664 28.1071 81.5214 28.1071 85.1654Z" fill="#FE6661"/>
<path d="M35.1051 81.8593C28.0841 80.8283 21.0621 79.7963 14.0411 78.7653C12.1491 78.4883 11.3351 81.3783 13.2431 81.6583C20.2651 82.6893 27.2861 83.7213 34.3071 84.7523C36.1991 85.0293 37.0141 82.1383 35.1051 81.8593Z" fill="#8B0702"/>
<path d="M34.706 86.4953C28.486 87.2983 22.267 88.0993 16.047 88.9013C14.156 89.1453 14.132 92.1473 16.047 91.9013C22.267 91.0983 28.486 90.2983 34.706 89.4953C36.597 89.2513 36.622 86.2493 34.706 86.4953Z" fill="#8B0702"/>
<path d="M50.201 64.8687H50.2021C57.1571 64.8687 62.794 70.5057 62.794 77.4607C62.794 84.4157 57.1571 90.0527 50.2021 90.0527C43.2471 90.0527 37.608 84.4157 37.608 77.4607C37.608 75.4727 38.082 73.6017 38.901 71.9297C44.235 70.4567 47.836 67.6157 50.201 64.8687Z" fill="#8B0702"/>
<path d="M47.1411 75.1058C47.1411 78.3948 49.8061 81.0588 53.0941 81.0588C56.3811 81.0588 59.0461 78.3948 59.0461 75.1058C59.0461 71.8188 56.3811 69.1548 53.0941 69.1548C49.8071 69.1548 47.1411 71.8188 47.1411 75.1058Z" fill="white"/>
<path d="M44.7871 83.1098C44.7871 84.4108 45.8421 85.4648 47.1411 85.4648C48.4411 85.4648 49.4951 84.4098 49.4951 83.1098C49.4951 81.8108 48.4401 80.7578 47.1411 80.7578C45.8421 80.7578 44.7871 81.8108 44.7871 83.1098Z" fill="white"/>
<path d="M52.8131 57.5236C49.8671 67.4186 38.8291 71.7366 29.3211 71.4196C27.3851 71.3556 27.3921 74.3556 29.3211 74.4196C40.1761 74.7806 52.3591 69.5626 55.7061 58.3196C56.2591 56.4626 53.3641 55.6736 52.8131 57.5236Z" fill="#8B0702"/>
<path d="M92.5761 107.403C92.3631 101.844 88.4571 97.3818 82.7831 97.1388C77.1151 96.8968 73.1891 102.211 72.9901 107.403C72.9161 109.339 75.9161 109.331 75.9901 107.403C76.1381 103.522 78.7761 100.311 82.7831 100.139C86.7851 99.9688 89.4371 103.781 89.5761 107.403C89.6501 109.33 92.6501 109.338 92.5761 107.403Z" fill="#8B0702"/>
<path d="M22.227 142.266C22.227 142.266 37.981 123.381 42.433 118.043C46.887 112.703 49.414 101.963 43.241 95.9359C36.984 89.8249 27.241 93.9809 22.789 99.3189C18.335 104.657 1.43201 124.921 1.43201 124.921L22.227 142.266Z" fill="white"/>
<path d="M20.801 103.537C25.614 110.281 24.142 119.584 17.515 124.314C12.641 127.793 6.34201 127.822 1.43201 124.919C4.01201 121.825 14.38 109.398 20.054 102.593C20.311 102.901 20.565 103.209 20.801 103.537Z" fill="#261E1C"/>
<path d="M23.2871 143.327C27.6981 138.04 32.108 132.753 36.518 127.466C38.96 124.538 41.453 121.644 43.841 118.671C46.961 114.788 48.524 109.601 48.401 104.655C48.272 99.4277 45.3751 94.4747 40.5171 92.3577C35.6471 90.2347 30.0501 91.9007 25.8091 94.6567C22.5551 96.7717 20.2501 100.03 17.7961 102.972C14.8711 106.478 11.946 109.984 9.02204 113.49C6.13804 116.947 3.25505 120.404 0.372048 123.861C-0.857952 125.336 1.25205 127.468 2.49305 125.982C6.70705 120.929 10.921 115.878 15.135 110.826C20.614 104.26 26.3391 94.4837 35.9291 94.4057C42.8531 94.3487 45.8211 101.334 45.3221 107.248C44.9131 112.102 42.2981 115.873 39.2951 119.475C33.8241 126.034 28.3541 132.59 22.8821 139.149C22.3101 139.835 21.7381 140.52 21.1661 141.208C19.9361 142.68 22.0471 144.813 23.2871 143.327Z" fill="#8B0702"/>
<path d="M32.385 97.7018C30.544 98.6858 29.072 100.145 27.691 101.684C26.402 103.12 28.517 105.248 29.812 103.805C31.032 102.448 32.274 101.16 33.899 100.291C35.606 99.3788 34.09 96.7888 32.385 97.7018Z" fill="#8B0702"/>
<path d="M36.791 102.586C35.317 103.785 34.165 105.313 33.07 106.852C32.596 107.52 32.95 108.518 33.609 108.905C34.361 109.346 35.189 109.032 35.661 108.366C36.612 107.028 37.633 105.751 38.912 104.708C39.547 104.192 39.446 103.12 38.912 102.587C38.29 101.965 37.425 102.071 36.791 102.586Z" fill="#8B0702"/>
<path d="M135.247 142.418C135.247 142.418 119.937 123.17 115.611 117.73C111.282 112.287 109.007 101.492 115.319 95.6108C121.716 89.6458 131.36 94.0268 135.687 99.4678C140.015 104.909 156.441 125.56 156.441 125.56L135.247 142.418Z" fill="white"/>
<path d="M115.32 95.6122C115.559 95.3892 115.803 95.1843 116.052 94.9893C119.465 97.0463 122.71 99.8602 125.495 103.362C133.94 113.979 135.314 127.282 129.309 134.952C124.394 128.772 118.096 120.854 115.612 117.731C111.283 112.287 109.007 101.492 115.32 95.6122Z" fill="#F4B774"/>
<path d="M136.308 141.358C132.022 135.969 127.737 130.581 123.451 125.192C117.859 118.161 109.757 109.872 113.96 100.055C116.759 93.52 124.027 93.244 129.542 96.237C133.236 98.241 135.598 101.749 138.15 104.958C143.378 111.532 148.608 118.106 153.836 124.681C154.352 125.328 154.866 125.974 155.381 126.622C156.585 128.136 158.694 125.997 157.502 124.501C153.407 119.353 149.312 114.204 145.217 109.056C139.911 102.386 135.074 94.126 126.357 91.732C121.314 90.349 115.768 92.023 112.687 96.336C109.6 100.656 109.419 106.078 110.705 111.076C111.771 115.224 114.238 118.4 116.842 121.672C119.654 125.209 122.466 128.744 125.279 132.279C128.249 136.013 131.217 139.746 134.187 143.48C135.391 144.992 137.499 142.854 136.308 141.358Z" fill="#8B0702"/>
<path d="M124.586 100.202C126.187 101.104 127.401 102.434 128.586 103.817C129.847 105.288 131.959 103.155 130.707 101.696C129.358 100.122 127.922 98.637 126.1 97.612C124.412 96.66 122.901 99.252 124.586 100.202Z" fill="#8B0702"/>
<path d="M119.467 104.506C120.724 105.58 121.703 106.881 122.624 108.244C123.7 109.838 126.301 108.338 125.214 106.73C124.158 105.167 123.03 103.617 121.588 102.384C120.126 101.135 117.994 103.246 119.467 104.506Z" fill="#8B0702"/>
</svg>
