<svg width="512" height="512" viewBox="0 0 512 512" fill="none" xmlns="http://www.w3.org/2000/svg">
<path d="M111.56 456C142.245 456 167.12 431.125 167.12 400.44C167.12 369.755 142.245 344.88 111.56 344.88C80.8751 344.88 56 369.755 56 400.44C56 431.125 80.8751 456 111.56 456Z" fill="#3F4449"/>
<path d="M256 311.56C286.685 311.56 311.56 286.685 311.56 256C311.56 225.315 286.685 200.44 256 200.44C225.315 200.44 200.44 225.315 200.44 256C200.44 286.685 225.315 311.56 256 311.56Z" fill="#4A5058"/>
<path d="M400.44 167.12C431.125 167.12 456 142.245 456 111.56C456 80.8751 431.125 56 400.44 56C369.755 56 344.88 80.8751 344.88 111.56C344.88 142.245 369.755 167.12 400.44 167.12Z" fill="#4A5058"/>
<path d="M111.56 462C99.3842 462.002 87.4812 458.393 77.3564 451.63C67.2316 444.867 59.3397 435.253 54.6789 424.005C50.018 412.756 48.7975 400.378 51.1717 388.436C53.5458 376.494 59.4081 365.524 68.017 356.914C76.6259 348.304 87.5948 342.44 99.5366 340.064C111.478 337.687 123.856 338.906 135.106 343.565C146.355 348.224 155.97 356.114 162.735 366.238C169.499 376.362 173.11 388.264 173.11 400.44C173.091 416.759 166.601 432.405 155.063 443.945C143.524 455.486 127.879 461.979 111.56 462ZM111.56 350.88C101.758 350.878 92.1747 353.783 84.0232 359.228C75.8718 364.672 69.518 372.412 65.7654 381.467C62.0128 390.523 61.0299 400.488 62.9411 410.103C64.8522 419.717 69.5716 428.549 76.5023 435.481C83.433 442.413 92.2637 447.134 101.878 449.047C111.492 450.96 121.457 449.979 130.513 446.228C139.57 442.478 147.311 436.125 152.757 427.975C158.203 419.825 161.11 410.242 161.11 400.44C161.094 387.302 155.869 374.707 146.58 365.417C137.292 356.126 124.698 350.899 111.56 350.88Z" fill="black"/>
<path d="M256 317.55C243.824 317.55 231.922 313.939 221.798 307.175C211.674 300.41 203.784 290.795 199.125 279.546C194.466 268.296 193.247 255.918 195.624 243.977C198 232.035 203.864 221.066 212.474 212.457C221.084 203.848 232.054 197.986 243.996 195.612C255.938 193.237 268.316 194.458 279.565 199.119C290.813 203.78 300.427 211.672 307.19 221.796C313.953 231.921 317.562 243.824 317.56 256C317.539 272.319 311.046 287.964 299.505 299.503C287.965 311.041 272.319 317.531 256 317.55ZM256 206.44C246.198 206.44 236.616 209.347 228.466 214.792C220.316 220.238 213.964 227.978 210.212 237.034C206.461 246.09 205.48 256.055 207.392 265.669C209.305 275.282 214.025 284.113 220.956 291.044C227.887 297.975 236.718 302.695 246.331 304.608C255.945 306.52 265.91 305.539 274.966 301.787C284.022 298.036 291.762 291.684 297.208 283.534C302.653 275.384 305.56 265.802 305.56 256C305.547 242.86 300.321 230.262 291.03 220.97C281.738 211.679 269.14 206.453 256 206.44Z" fill="black"/>
<path d="M400.44 173.11C388.265 173.11 376.363 169.5 366.239 162.735C356.116 155.971 348.225 146.357 343.566 135.108C338.907 123.859 337.688 111.482 340.063 99.5402C342.438 87.5988 348.301 76.6298 356.911 68.0205C365.52 59.4112 376.489 53.5482 388.43 51.1729C400.372 48.7976 412.749 50.0166 423.998 54.676C435.247 59.3353 444.861 67.2256 451.625 77.3491C458.39 87.4726 462 99.3746 462 111.55C461.981 127.871 455.49 143.518 443.949 155.059C432.408 166.6 416.761 173.091 400.44 173.11ZM400.44 62C390.638 62 381.055 64.9069 372.905 70.3531C364.755 75.7992 358.402 83.54 354.652 92.5965C350.901 101.653 349.92 111.618 351.833 121.232C353.746 130.846 358.467 139.677 365.399 146.608C372.331 153.538 381.163 158.258 390.777 160.169C400.392 162.08 410.357 161.097 419.413 157.345C428.468 153.592 436.208 147.238 441.653 139.087C447.097 130.935 450.002 121.352 450 111.55C449.984 98.4117 444.757 85.8161 435.466 76.5269C426.175 67.2376 413.578 62.0132 400.44 62Z" fill="black"/>
</svg>
