<svg width="490" height="490" viewBox="0 0 490 490" fill="none" xmlns="http://www.w3.org/2000/svg">
<path d="M245 300.56C275.685 300.56 300.56 275.685 300.56 245C300.56 214.315 275.685 189.44 245 189.44C214.315 189.44 189.44 214.315 189.44 245C189.44 275.685 214.315 300.56 245 300.56Z" fill="#F17B89"/>
<path d="M245 306.56C232.825 306.56 220.923 302.95 210.799 296.185C200.676 289.421 192.785 279.807 188.126 268.558C183.467 257.309 182.248 244.932 184.623 232.99C186.998 221.049 192.861 210.08 201.47 201.471C210.08 192.861 221.049 186.998 232.99 184.623C244.932 182.248 257.309 183.467 268.558 188.126C279.807 192.785 289.421 200.676 296.185 210.799C302.95 220.923 306.56 232.825 306.56 245C306.539 261.32 300.046 276.966 288.506 288.506C276.966 300.046 261.32 306.539 245 306.56ZM245 195.44C235.198 195.44 225.616 198.347 217.466 203.792C209.316 209.238 202.964 216.978 199.212 226.034C195.461 235.09 194.48 245.055 196.392 254.669C198.305 264.282 203.025 273.113 209.956 280.044C216.887 286.975 225.718 291.695 235.331 293.608C244.945 295.52 254.91 294.539 263.966 290.787C273.022 287.036 280.762 280.684 286.208 272.534C291.653 264.384 294.56 254.802 294.56 245C294.547 231.86 289.321 219.262 280.03 209.97C270.738 200.679 258.14 195.453 245 195.44Z" fill="black"/>
</svg>
