<svg width="512" height="512" viewBox="0 0 512 512" fill="none" xmlns="http://www.w3.org/2000/svg">
<path d="M111.56 456C142.245 456 167.12 431.125 167.12 400.44C167.12 369.755 142.245 344.88 111.56 344.88C80.8751 344.88 56 369.755 56 400.44C56 431.125 80.8751 456 111.56 456Z" fill="#3F4449"/>
<path d="M400.44 167.12C431.125 167.12 456 142.245 456 111.56C456 80.8751 431.125 56 400.44 56C369.755 56 344.88 80.8751 344.88 111.56C344.88 142.245 369.755 167.12 400.44 167.12Z" fill="#4A5058"/>
<path d="M111.56 462C99.3842 462.002 87.4812 458.393 77.3564 451.63C67.2316 444.867 59.3397 435.253 54.6789 424.005C50.018 412.756 48.7975 400.378 51.1717 388.436C53.5458 376.494 59.4081 365.524 68.017 356.914C76.6259 348.304 87.5948 342.44 99.5366 340.064C111.478 337.687 123.856 338.906 135.106 343.565C146.355 348.224 155.97 356.114 162.735 366.238C169.499 376.362 173.11 388.264 173.11 400.44C173.094 416.76 166.605 432.407 155.066 443.948C143.526 455.489 127.88 461.981 111.56 462ZM111.56 350.89C101.757 350.888 92.1738 353.793 84.0222 359.238C75.8706 364.683 69.5168 372.423 65.7645 381.48C62.0121 390.536 61.0298 400.502 62.9418 410.116C64.8538 419.731 69.5741 428.563 76.5058 435.494C83.4375 442.426 92.2692 447.146 101.884 449.058C111.498 450.97 121.464 449.988 130.52 446.236C139.577 442.483 147.317 436.129 152.762 427.978C158.207 419.826 161.112 410.243 161.11 400.44C161.094 387.303 155.869 374.709 146.58 365.42C137.291 356.131 124.697 350.906 111.56 350.89Z" fill="black"/>
<path d="M400.44 173.11C388.264 173.11 376.362 169.499 366.238 162.735C356.114 155.97 348.224 146.355 343.565 135.106C338.906 123.856 337.688 111.478 340.064 99.5365C342.44 87.5948 348.304 76.6259 356.914 68.017C365.524 59.408 376.494 53.5458 388.436 51.1716C400.379 48.7974 412.756 50.018 424.005 54.6788C435.253 59.3397 444.867 67.2316 451.63 77.3564C458.393 87.4812 462.002 99.3841 462 111.56C461.981 127.88 455.489 143.526 443.948 155.065C432.407 166.605 416.76 173.094 400.44 173.11ZM400.44 62C390.638 62 381.056 64.9066 372.906 70.3524C364.756 75.7981 358.404 83.5383 354.653 92.5942C350.901 101.65 349.92 111.615 351.832 121.229C353.745 130.842 358.465 139.673 365.396 146.604C372.327 153.535 381.158 158.255 390.771 160.168C400.385 162.08 410.35 161.099 419.406 157.347C428.462 153.596 436.202 147.244 441.648 139.094C447.093 130.944 450 121.362 450 111.56C449.987 98.4199 444.761 85.8218 435.47 76.5304C426.178 67.239 413.58 62.0132 400.44 62Z" fill="black"/>
</svg>
