<svg width="277.000000" height="265.000000" viewBox="0 0 277 265" fill="none" xmlns="http://www.w3.org/2000/svg" xmlns:xlink="http://www.w3.org/1999/xlink">
	<desc>
			Created with Pixso.
	</desc>
	<defs>
		<clipPath id="clip4_3">
			<rect id="week" width="277.000000" height="265.000000" fill="white" fill-opacity="0"/>
		</clipPath>
	</defs>
	<g clip-path="url(#clip4_3)">
		<path id="path" d="M225.06 240.15L51.93 240.15C37.65 240.15 25.96 228.97 25.96 215.31L25.96 57.96C25.96 44.3 37.65 33.12 51.93 33.12C56.69 33.12 60.59 36.85 60.59 41.4C60.59 45.96 56.69 49.68 51.93 49.68C47.17 49.68 43.28 53.41 43.28 57.96L43.28 215.31C43.28 219.86 47.17 223.59 51.93 223.59L225.06 223.59C229.82 223.59 233.71 219.86 233.71 215.31L233.71 57.96C233.71 53.41 229.82 49.68 225.06 49.68C220.3 49.68 216.4 45.96 216.4 41.4C216.4 36.85 220.3 33.12 225.06 33.12C239.34 33.12 251.03 44.3 251.03 57.96L251.03 215.31C251.03 228.97 239.34 240.15 225.06 240.15Z" fill="#333333" fill-opacity="1.000000" fill-rule="nonzero"/>
		<path id="path" d="M86.56 57.96C81.8 57.96 77.9 54.24 77.9 49.68L77.9 33.12C77.9 28.57 81.8 24.84 86.56 24.84C91.32 24.84 95.21 28.57 95.21 33.12L95.21 49.68C95.21 54.24 91.32 57.96 86.56 57.96ZM155.81 49.68L121.18 49.68C116.42 49.68 112.53 45.96 112.53 41.4C112.53 36.85 116.42 33.12 121.18 33.12L155.81 33.12C160.57 33.12 164.46 36.85 164.46 41.4C164.46 45.96 160.57 49.68 155.81 49.68ZM190.43 57.96C185.67 57.96 181.78 54.24 181.78 49.68L181.78 33.12C181.78 28.57 185.67 24.84 190.43 24.84C195.19 24.84 199.09 28.57 199.09 33.12L199.09 49.68C199.09 54.24 195.19 57.96 190.43 57.96ZM138.5 198.75C137.63 198.75 136.76 198.75 135.9 198.33C131.57 197.09 128.97 192.12 130.27 187.98L161 99.37L103.87 99.37C99.11 99.37 95.21 95.64 95.21 91.09C95.21 86.53 99.11 82.81 103.87 82.81L161 82.81C166.63 82.81 171.82 85.29 174.85 89.85C178.31 93.99 179.18 99.78 177.02 104.75L146.29 193.36C145.42 196.68 141.96 198.75 138.5 198.75Z" fill="#333333" fill-opacity="1.000000" fill-rule="nonzero"/>
	</g>
</svg>
