<?xml version="1.0" encoding="utf-8"?>
<!-- Generator: Adobe Illustrator 27.5.0, SVG Export Plug-In . SVG Version: 6.00 Build 0)  -->
<svg version="1.1" xmlns="http://www.w3.org/2000/svg" xmlns:xlink="http://www.w3.org/1999/xlink" x="0px" y="0px"
	 viewBox="0 0 800 1200" style="enable-background:new 0 0 800 1200;" xml:space="preserve">
<g id="Background">
	<rect style="fill:#F8EAD9;" width="800" height="1200"/>
</g>
<g id="Graphic_Elements">
	<g>
		<g>
			<g>
				<path style="fill:#AFC5DD;" d="M321.565,0c-3.055,21.626-6.585,43.298-10.609,64.984c-8.099-7.436-16.13-15.039-24.032-22.631
					c-7.897-7.573-15.716-15.296-23.413-23.031C283.009,13.36,302.368,6.913,321.565,0z"/>
			</g>
			<g>
				<path style="fill:#AFC5DD;" d="M257.664,21.12c-2.108,10.691-4.338,21.396-6.681,32.146c-2.35,10.724-4.839,21.403-7.433,32.157
					c-15.399-15.835-30.349-31.865-44.86-48.211C218.47,32.349,238.136,26.98,257.664,21.12z"/>
			</g>
			<g>
				<path style="fill:#AFC5DD;" d="M192.758,38.682c-2.696,10.557-5.521,21.112-8.465,31.713
					c-2.944,10.602-6.043,21.091-9.251,31.683c-7.228-8.278-14.367-16.742-21.366-25.177c-3.501-4.222-6.97-8.451-10.408-12.686
					c-3.445-4.275-6.857-8.556-10.238-12.843C153.035,47.663,172.952,43.429,192.758,38.682z"/>
			</g>
			<g>
				<path style="fill:#AFC5DD;" d="M127.028,52.477c-3.288,10.464-6.737,20.755-10.302,31.163c-1.785,5.19-3.6,10.399-5.451,15.59
					c-1.857,5.161-3.747,10.328-5.67,15.499C92.14,97.292,79.16,79.48,66.73,61.617C86.895,59.106,107.003,56.058,127.028,52.477z"
					/>
			</g>
			<g>
				<path style="fill:#AFC5DD;" d="M60.675,62.315c-7.839,20.419-16.255,40.594-25.228,60.856
					c-6.188-9.194-12.235-18.402-18.141-27.62c-2.952-4.591-5.872-9.243-8.758-13.915C5.663,76.974,2.814,72.31,0,67.644l7.597-0.46
					c2.533-0.144,5.065-0.304,7.594-0.523L30.37,65.46C40.478,64.484,50.59,63.554,60.675,62.315z"/>
			</g>
		</g>
		<g>
			<g>
				<path style="fill:#AFC5DD;" d="M478.435,0c3.055,21.626,6.585,43.298,10.609,64.984c8.099-7.436,16.13-15.039,24.032-22.631
					c7.897-7.573,15.716-15.296,23.413-23.031C516.991,13.36,497.632,6.913,478.435,0z"/>
			</g>
			<g>
				<path style="fill:#AFC5DD;" d="M542.336,21.12c2.108,10.691,4.338,21.396,6.681,32.146c2.349,10.724,4.839,21.403,7.433,32.157
					c15.399-15.835,30.349-31.865,44.86-48.211C581.53,32.349,561.864,26.98,542.336,21.12z"/>
			</g>
			<g>
				<path style="fill:#AFC5DD;" d="M607.242,38.682c2.696,10.557,5.521,21.112,8.465,31.713c2.944,10.602,6.043,21.091,9.251,31.683
					c7.228-8.278,14.367-16.742,21.366-25.177c3.501-4.222,6.97-8.451,10.408-12.686c3.445-4.275,6.857-8.556,10.238-12.843
					C646.966,47.663,627.048,43.429,607.242,38.682z"/>
			</g>
			<g>
				<path style="fill:#AFC5DD;" d="M672.972,52.477c3.288,10.464,6.737,20.755,10.302,31.163c1.785,5.19,3.6,10.399,5.451,15.59
					c1.857,5.161,3.747,10.328,5.67,15.499C707.86,97.292,720.84,79.48,733.27,61.617C713.105,59.106,692.997,56.058,672.972,52.477
					z"/>
			</g>
			<g>
				<path style="fill:#AFC5DD;" d="M739.325,62.315c7.839,20.419,16.255,40.594,25.228,60.856
					c6.188-9.194,12.234-18.402,18.141-27.62c2.952-4.591,5.872-9.243,8.758-13.915c2.885-4.662,5.735-9.326,8.548-13.992
					l-7.597-0.46c-2.533-0.144-5.065-0.304-7.594-0.523l-15.18-1.202C759.522,64.484,749.41,63.554,739.325,62.315z"/>
			</g>
		</g>
	</g>
	<rect y="1088.885" style="fill:#FDCFB3;" width="800" height="111.115"/>
	<g>
		<ellipse style="fill:#EFB797;" cx="194.355" cy="1122.788" rx="151.78" ry="11.609"/>
		<g>
			<g>
				<path style="fill:#AFC5DD;" d="M52.823,960.638c-0.246,0.807-0.436,1.632-0.568,2.465c-0.222,1.405-0.261,2.834-0.144,4.25
					c-1.241-1.68-2.553-3.307-3.942-4.868c-1.242-1.395-2.918-3.524-5.063-2.912c-2.337,0.667-2.764,3.315-2.634,5.39
					c0.166,2.635,0.627,5.271,1.267,7.83c0.556,2.222,1.276,4.4,2.143,6.518c-0.751-0.602-1.575-1.096-2.536-1.292
					c-1.442-0.293-3.109,0.177-3.82,1.552c-0.74,1.429-0.188,3.14,0.434,4.505c0.817,1.795,1.783,3.529,2.835,5.197
					c0.922,1.461,1.922,2.868,2.995,4.221c-0.673,0.053-1.345,0.391-1.829,0.91c-1.281,1.372-0.694,3.396,0.046,4.884
					c1.626,3.27,3.776,6.493,6.455,8.992c1.093,1.02,2.294,1.907,3.6,2.619c-0.264,0.152-0.507,0.354-0.711,0.601
					c-0.683,0.828-0.801,1.888-0.437,2.88c0.438,1.195,1.425,2.085,2.353,2.907c0.956,0.847,1.933,1.67,2.931,2.468
					c3.916,3.128,8.183,5.865,12.798,7.845c1.32,0.566,15.254,7.072,18.56,11.9c1.93,2.818,3.504,5.858,5.16,8.84
					c1.692,3.047,3.511,6.022,5.465,8.909c0.569,0.84,1.149,1.673,1.74,2.498c0.487,0.68,0.963,1.356,1.582,1.924
					c1.033,0.948,2.523,1.691,3.781,0.709c0.148-0.116,0.205-0.359,0.118-0.528c-5.974-11.509-12.035-23.177-15.247-35.815
					c-1.647-6.481-2.279-13.101-2.808-19.749c-0.53-6.666-1.011-13.339-1.598-20.001c-0.574-6.508-1.564-13.258-5.408-18.729
					c-0.127-0.181-0.469-0.22-0.625-0.056c-1.165,1.221-2.066,2.648-2.68,4.192c-0.253-3.322-1.254-6.565-3.764-8.918
					c-1.394-1.307-3.168-2.24-5.09-2.409c-2.018-0.177-3.967,0.602-5.006,2.392c-0.715,1.233-0.997,2.648-1.112,4.069
					c-1.225-2.662-2.835-5.145-4.791-7.33c-0.827-0.923-2.36-2.392-3.513-1.026C53.262,959.058,53.043,959.918,52.823,960.638z"/>
				<path style="fill:#AFC5DD;" d="M145.136,955.545c-1.154-1.366-2.687,0.103-3.513,1.026c-1.957,2.185-3.566,4.668-4.791,7.33
					c-0.115-1.422-0.396-2.836-1.112-4.069c-1.039-1.79-2.988-2.569-5.006-2.392c-1.923,0.169-3.696,1.102-5.09,2.409
					c-2.51,2.353-3.511,5.596-3.764,8.918c-0.614-1.544-1.515-2.971-2.68-4.192c-0.156-0.163-0.498-0.125-0.625,0.056
					c-3.844,5.471-4.834,12.221-5.408,18.729c-0.587,6.662-1.067,13.335-1.598,20.001c-0.529,6.649-1.161,13.268-2.808,19.749
					c-3.212,12.639-9.273,24.307-15.247,35.815c-0.088,0.169-0.031,0.412,0.118,0.528c1.257,0.982,2.748,0.238,3.781-0.709
					c0.619-0.568,1.095-1.245,1.582-1.924c0.591-0.825,1.171-1.657,1.741-2.498c1.954-2.887,3.773-5.862,5.465-8.909
					c1.656-2.982,3.23-6.022,5.16-8.84c3.306-4.828,17.24-11.334,18.56-11.9c4.615-1.98,8.882-4.716,12.798-7.845
					c0.998-0.797,1.975-1.621,2.931-2.468c0.928-0.822,1.916-1.712,2.353-2.907c0.364-0.993,0.246-2.052-0.437-2.88
					c-0.204-0.247-0.446-0.449-0.711-0.601c1.306-0.712,2.506-1.599,3.6-2.619c2.678-2.499,4.829-5.721,6.455-8.992
					c0.74-1.488,1.326-3.512,0.046-4.884c-0.484-0.519-1.156-0.857-1.829-0.91c1.073-1.352,2.074-2.759,2.995-4.22
					c1.051-1.667,2.017-3.402,2.834-5.197c0.621-1.365,1.174-3.076,0.434-4.505c-0.712-1.375-2.378-1.845-3.82-1.552
					c-0.961,0.196-1.784,0.69-2.536,1.292c0.867-2.119,1.587-4.297,2.143-6.518c0.641-2.559,1.102-5.195,1.268-7.83
					c0.131-2.076-0.297-4.723-2.634-5.39c-2.145-0.612-3.821,1.516-5.063,2.912c-1.389,1.561-2.701,3.188-3.941,4.868
					c0.117-1.416,0.078-2.844-0.144-4.25c-0.132-0.833-0.322-1.658-0.568-2.465C145.852,956.992,145.633,956.133,145.136,955.545z"
					/>
				<path style="fill:#AFC5DD;" d="M94.95,904.281c-1.634-0.724-2.371,1.267-2.712,2.458c-0.805,2.82-1.167,5.757-1.106,8.687
					c-0.725-1.228-1.596-2.378-2.779-3.174c-1.717-1.156-3.81-1.005-5.548,0.037c-1.656,0.992-2.843,2.607-3.525,4.392
					c-1.229,3.213-0.713,6.568,0.512,9.666c-1.227-1.12-2.661-2.01-4.243-2.599c-0.212-0.079-0.503,0.105-0.538,0.324
					c-1.066,6.601,0.993,13.105,3.322,19.209c2.383,6.248,4.868,12.46,7.304,18.688c2.43,6.211,4.754,12.442,6.105,18.99
					c2.635,12.771,4.214,62.581,3.87,75.543c-0.005,0.19,0.153,0.384,0.337,0.424c1.56,0.333,2.575-0.986,3.091-2.29
					c0.309-0.782-0.044-49.016,0.146-52.497c0.186-3.406,0.273-6.828,0.777-10.206c0.864-5.787,10.553-17.729,11.493-18.815
					c3.286-3.797,5.928-8.124,8.083-12.649c0.549-1.153,1.068-2.321,1.557-3.501c0.475-1.145,0.975-2.377,0.846-3.643
					c-0.107-1.052-0.676-1.953-1.652-2.399c-0.291-0.133-0.598-0.209-0.902-0.23c0.863-1.211,1.556-2.534,2.093-3.929
					c1.317-3.418,1.843-7.256,1.876-10.908c0.015-1.661-0.342-3.738-2.093-4.413c-0.663-0.255-1.415-0.265-2.043-0.019
					c0.374-1.685,0.659-3.388,0.85-5.105c0.217-1.959,0.328-3.942,0.278-5.913c-0.038-1.499-0.288-3.28-1.579-4.242
					c-1.241-0.925-2.945-0.62-4.115,0.274c-0.778,0.596-1.303,1.401-1.716,2.27c-0.146-2.285-0.45-4.558-0.921-6.8
					c-0.542-2.582-1.279-5.154-2.282-7.596c-0.789-1.924-2.331-4.119-4.725-3.697c-2.197,0.387-2.774,3.034-3.281,4.832
					c-0.567,2.011-1.036,4.048-1.418,6.101c-0.513-1.324-1.173-2.592-1.987-3.759c-0.482-0.692-1.014-1.351-1.588-1.969
					C96.227,905.27,95.653,904.593,94.95,904.281z"/>
			</g>
			<path style="fill:#FFFFFF;" d="M123.238,1122.185H73.807c-2.799,0-5.189-2.273-5.657-5.379l-9.09-60.327
				c-0.594-3.943,2.105-7.539,5.658-7.539h68.52c3.591,0,6.299,3.67,5.641,7.644l-9.999,60.327
				C128.372,1119.969,126.001,1122.185,123.238,1122.185z"/>
		</g>
		<g>
			
				<rect x="299.364" y="1103.818" transform="matrix(0.0878 -0.9961 0.9961 0.0878 -818.1735 1320.6467)" style="fill:#FFFFFF;" width="25.24" height="6.454"/>
			<path style="fill:#AFC5DD;" d="M314.837,1111.91l-0.005,0c-2.549-0.225-4.432-2.472-4.208-5.021
				c0.225-2.554,2.473-4.438,5.021-4.213l0.005,0L314.837,1111.91z"/>
			<path style="fill:#B8E3DD;" d="M309.571,1094.163l0.453,0.04c0.072,0.379,0.094,0.774,0.059,1.18l-2.013,22.838
				c-0.035,0.395-0.126,0.77-0.257,1.125l-0.458-0.04L309.571,1094.163z"/>
			<path style="fill:#AFC5DD;" d="M244.53,1078.576l62.183,12.316c1.711,0.339,2.987,1.679,3.31,3.311
				c0.072,0.379,0.094,0.774,0.059,1.18l-2.013,22.838c-0.035,0.395-0.126,0.77-0.257,1.125c-0.599,1.562-2.096,2.667-3.845,2.702
				l-63.379,1.256c-2.5,0.047-4.488-2.078-4.268-4.57l3.209-36.411C239.748,1079.837,242.078,1078.087,244.53,1078.576z"/>
			<path style="fill:#FFFFFF;" d="M316.307,1094.757l-2.216,25.143l3.161,0.278c1.285,0.113,2.419-0.837,2.533-2.122l1.805-20.487
				c0.113-1.286-0.837-2.42-2.123-2.533L316.307,1094.757z"/>
			<g>
				<polygon id="XMLID_8_" style="fill:#E57442;" points="254.688,1088.483 253.904,1097.378 245.009,1096.594 244.213,1105.622 
					253.108,1106.406 252.324,1115.301 261.353,1116.096 262.137,1107.201 271.032,1107.985 271.827,1098.957 262.932,1098.173 
					263.716,1089.278 				"/>
			</g>
			<path style="fill:#FFFFFF;" d="M253.904,1097.375l-8.896-0.784l-0.796,9.031l8.896,0.784l-0.784,8.896l9.031,0.796l0.784-8.896
				l8.891,0.783l0.796-9.031l-8.891-0.784l0.783-8.891l-9.031-0.796L253.904,1097.375z M261.454,1091.178l-0.783,8.891l8.891,0.784
				l-0.429,4.869l-8.891-0.783l-0.784,8.896l-4.869-0.429l0.784-8.896l-8.896-0.784l0.429-4.869l8.896,0.784l0.783-8.891
				L261.454,1091.178z"/>
		</g>
		<g>
			<path style="fill:#FDCFB3;" d="M209.824,1071.656c-2.648-5.327-6.473-12.021-12.228-14.418c-0.003-0.001-11.218,0-11.218,0
				s-11.215-0.001-11.218,0c-5.755,2.396-9.58,9.091-12.228,14.418c-5.964,11.999-7.816,29.772-0.624,41.898
				c3.556,5.995,10.064,9.616,17.035,9.616h7.034h7.035c6.971,0,13.479-3.621,17.035-9.616
				C217.64,1101.428,215.788,1083.655,209.824,1071.656z"/>
			<path style="fill:#AFC5DD;" d="M194.277,1048.145h-15.798c-1.833,0-3.319,1.486-3.319,3.319v5.773h22.436v-5.773
				C197.596,1049.631,196.11,1048.145,194.277,1048.145z"/>
			<rect x="181.895" y="1040.206" style="fill:#FDCFB3;" width="8.965" height="7.939"/>
			<path style="fill:#AFC5DD;" d="M193.526,1029.881v8.995c0,0.733-0.594,1.328-1.328,1.328h-10.668
				c-0.733,0-1.328-0.594-1.328-1.328l0,0c0-2.482-2.012-4.494-4.494-4.494h-7.422c-0.733,0-1.328-0.594-1.328-1.328v-3.173
				c0-0.733,0.594-1.328,1.328-1.328h23.911C192.932,1028.554,193.526,1029.148,193.526,1029.881z"/>
			<path style="fill:#FFFFFF;" d="M209.824,1071.656c-2.648-5.327-6.473-12.021-12.228-14.418c-0.001,0-1.302,0-3.018,0
				c-3.323,0-8.201,0-8.201,0s-4.878,0-8.2,0c-1.716,0-3.016,0-3.018,0c-5.755,2.396-9.58,9.091-12.228,14.418
				c-5.964,11.999-7.816,29.772-0.624,41.898c3.556,5.995,10.064,9.616,17.035,9.616h7.034h7.035c6.971,0,13.479-3.621,17.035-9.616
				C217.64,1101.428,215.788,1083.655,209.824,1071.656z M208.401,1112.34c-3.092,5.213-8.835,8.451-14.989,8.451h-7.035h-7.034
				c-6.153,0-11.896-3.238-14.989-8.451c-3.123-5.265-4.607-12.072-4.291-19.684c0.288-6.954,2.064-14.036,4.999-19.941
				c2.468-4.965,5.888-10.893,10.598-13.098c0.529,0,1.441,0,2.516,0l8.201,0.001l8.2-0.001c1.074,0,1.986,0,2.515,0
				c4.715,2.213,8.133,8.136,10.6,13.098c2.935,5.905,4.71,12.987,4.999,19.941C213.008,1100.268,211.524,1107.075,208.401,1112.34z
				"/>
			<g>
				<g>
					<g>
						<polygon id="XMLID_7_" style="fill:#E57442;" points="201,1085.881 191.301,1085.881 191.301,1076.181 181.456,1076.181 
							181.456,1085.881 171.756,1085.881 171.756,1095.726 181.456,1095.726 181.456,1105.425 191.301,1105.425 191.301,1095.726 
							201,1095.726 						"/>
					</g>
				</g>
			</g>
		</g>
	</g>
	<g>
		<ellipse style="fill:#EFB797;" cx="646.409" cy="1124.052" rx="135.249" ry="10.345"/>
		<g>
			<path style="fill:#E57442;" d="M732.499,1061.3c0,0-14.084-11.658-13.86-14.185c0.224-2.527,9.059-7.543,11.4-7.32
				c2.341,0.223,5.619,21.749,5.619,21.749L732.499,1061.3z"/>
			<path style="fill:#E57442;" d="M740.936,1061.951c0,0,15.575-13.861,12.499-16.541c-3.076-2.68-11.36-5-12.431-2.987
				c-1.07,2.013-5.347,19.121-5.347,19.121L740.936,1061.951z"/>
			
				<rect x="698.302" y="1061.206" transform="matrix(-0.997 -0.0769 0.0769 -0.997 1382.6678 2234.5359)" style="fill:#FFFFFF;" width="72.138" height="58.864"/>
			
				<rect x="728.011" y="1061.206" transform="matrix(-0.997 -0.0769 0.0769 -0.997 1382.6604 2234.54)" style="fill:#E57442;" width="12.72" height="58.864"/>
		</g>
		<g>
			<g>
				<path style="fill:#303442;" d="M615.115,1052.359c-0.397,0-0.761-0.266-0.868-0.668l-12.256-46.045
					c-2.466-9.264-10.883-15.733-20.468-15.733c-9.586,0-18.003,6.47-20.469,15.733l-12.256,46.045
					c-0.127,0.479-0.619,0.766-1.099,0.637c-0.48-0.128-0.765-0.62-0.637-1.099l12.256-46.045
					c2.675-10.05,11.806-17.068,22.205-17.068c10.399,0,19.53,7.019,22.205,17.068l12.256,46.045
					c0.128,0.479-0.158,0.972-0.637,1.099C615.269,1052.349,615.192,1052.359,615.115,1052.359z"/>
			</g>
			<g>
				<rect x="532.028" y="1038.096" style="fill:#AFC5DD;" width="98.99" height="85.735"/>
			</g>
			<g>
				
					<rect x="560.965" y="1054.436" transform="matrix(0.9856 -0.1691 0.1691 0.9856 -174.0105 114.2356)" style="fill:#FFFFFF;" width="45.092" height="48.103"/>
			</g>
			<g>
				<rect x="573.938" y="1051.39" style="fill:#303442;" width="5.963" height="9.629"/>
				<path style="fill:#303442;" d="M579.901,1061.57h-5.963c-0.304,0-0.551-0.247-0.551-0.551v-9.629
					c0-0.304,0.247-0.551,0.551-0.551h5.963c0.304,0,0.551,0.247,0.551,0.551v9.629
					C580.452,1061.323,580.205,1061.57,579.901,1061.57z M574.489,1060.468h4.861v-8.527h-4.861V1060.468z"/>
			</g>
		</g>
		<g>
			<path style="fill:#FFFFFF;" d="M650.518,1069.002c0,0-16.462-7.956-16.847-10.464c-0.386-2.508,6.995-9.488,9.322-9.831
				c2.327-0.343,10.652,19.777,10.652,19.777L650.518,1069.002z"/>
			<path style="fill:#FFFFFF;" d="M658.867,1067.618c0,0,11.813-17.181,8.186-19.048s-12.226-2.142-12.785,0.069
				c-0.558,2.21-0.624,19.845-0.624,19.845L658.867,1067.618z"/>
			
				<rect x="623.276" y="1067.611" transform="matrix(-0.9865 0.1635 -0.1635 -0.9865 1489.1567 2071.5427)" style="fill:#E57442;" width="72.138" height="58.864"/>
			
				<rect x="652.985" y="1067.611" transform="matrix(-0.9865 0.1635 -0.1635 -0.9865 1489.1547 2071.5447)" style="fill:#FFFFFF;" width="12.72" height="58.864"/>
		</g>
	</g>
</g>
</svg>
