<svg width="191" height="143" viewBox="0 0 191 143" fill="none" xmlns="http://www.w3.org/2000/svg">
<path d="M95.0161 129.734C16.8431 129.734 26.5061 72.0752 26.5061 72.0752C37.9251 30.4192 75.6931 17.6992 95.0161 17.6992C114.339 17.6992 152.108 30.4182 163.527 72.0752C163.527 72.0752 173.189 129.734 95.0161 129.734Z" fill="white"/>
<path d="M88.7701 19.4491C88.7701 18.9971 88.7471 18.5491 88.7321 18.1001C70.5651 20.2711 43.3361 31.7381 30.4341 60.9841C33.8551 61.6801 37.4101 62.0601 41.0661 62.0601C67.4121 62.0601 88.7701 42.9821 88.7701 19.4491Z" fill="#261E1C"/>
<path d="M163.527 72.0751C161.713 65.4571 159.229 59.5751 156.265 54.3521C156.151 83.0931 144.155 108.797 125.314 126.027C170.428 113.29 163.527 72.0751 163.527 72.0751Z" fill="#F6ECE2"/>
<path d="M96.2142 17.7231C96.1112 18.9791 96.0452 20.2451 96.0452 21.5281C96.0452 46.8981 116.658 67.4651 142.085 67.4651C148.697 67.4651 154.978 66.0641 160.662 63.5591C147.066 29.4281 114.418 18.1931 96.2142 17.7231Z" fill="#F4B774"/>
<path d="M160.662 63.5592C159.361 60.2942 157.884 57.2432 156.264 54.3872C156.248 58.1212 156.031 61.8042 155.625 65.4242C157.347 64.8932 159.031 64.2772 160.662 63.5592Z" fill="#D8954F"/>
<path d="M110.639 19.893C110.639 19.893 145.308 -0.960969 150.769 1.77003C156.23 4.50103 161.35 40.195 158.79 59.213C158.79 59.213 122.849 52.125 110.639 19.893Z" fill="#F4B774"/>
<path d="M150.77 1.76931C150.633 1.70131 150.474 1.6513 150.302 1.6123C155.316 12.9633 158.144 25.7743 158.144 39.3363C158.144 45.9553 157.47 52.3943 156.199 58.5723C157.839 59.0243 158.792 59.2123 158.792 59.2123C161.351 40.1953 156.231 4.50031 150.77 1.76931Z" fill="#D8954F"/>
<path d="M149.672 5.73119C148.161 2.97219 130.565 32.2322 135.055 34.4252C144.61 39.0912 148.684 44.2482 155.574 53.1502C157.721 55.9242 154.453 14.4612 149.672 5.73119Z" fill="#FE6661"/>
<path d="M79.3931 19.893C79.3931 19.893 44.7252 -0.960969 39.2632 1.77003C33.8012 4.50103 28.6821 40.195 31.2421 59.213C31.2421 59.213 67.1831 52.125 79.3931 19.893Z" fill="#261E1C"/>
<path d="M164.973 71.6763C163.7 67.1313 162.058 62.7283 160.062 58.4513C159.497 59.1863 158.933 59.9203 158.368 60.6553C158.376 60.6573 158.385 60.6583 158.392 60.6593C159.439 60.8473 160.159 60.2323 160.291 59.2133C161.659 48.6763 160.949 37.8153 159.674 27.3063C159.073 22.3523 158.273 17.4133 157.129 12.5543C156.348 9.23927 155.425 5.76427 153.701 2.79527C150.796 -2.20473 144.479 0.886265 140.383 2.57327C132.806 5.69326 125.562 9.64827 118.425 13.6553C115.557 15.2653 112.702 16.9023 109.883 18.5963C109.122 19.0533 109.014 19.8923 109.345 20.6493C109.346 20.6523 109.347 20.6543 109.348 20.6573C109.913 19.9223 110.477 19.1883 111.042 18.4533C100.254 15.6953 89.7791 15.6953 78.9921 18.4533C79.6071 19.0683 80.2221 19.6833 80.8371 20.2983C80.8381 20.2953 80.8391 20.2933 80.8401 20.2903C81.0751 19.6623 80.6891 18.9193 80.1511 18.5963C75.8531 16.0133 71.4811 13.5483 67.0791 11.1473C60.1291 7.35727 52.9841 3.47027 45.4381 0.99427C43.3981 0.32527 40.7321 -0.51773 38.6471 0.41127C36.5141 1.36027 35.5081 4.26927 34.7511 6.26427C31.3751 15.1643 30.3901 25.2553 29.6081 34.6673C28.9321 42.7983 28.6891 51.1023 29.7421 59.2123C29.8741 60.2293 30.5941 60.8513 31.6411 60.6583C31.6491 60.6563 31.6571 60.6553 31.6651 60.6543C31.1001 59.9203 30.5361 59.1853 29.9711 58.4503C27.6941 63.3303 25.2521 68.5613 24.7871 73.9993C24.5261 77.0453 24.5911 80.1203 24.8801 83.1613C25.8781 93.6733 29.9261 103.684 37.0131 111.572C48.5641 124.428 66.3141 129.241 82.9421 130.733C102.905 132.524 125.632 130.918 143.011 119.941C158.758 109.995 167.526 90.9403 165.083 72.4593C165.048 72.1993 165.017 71.9363 164.973 71.6763C164.657 69.7713 161.766 70.5823 162.08 72.4743C162.096 72.5683 162.109 72.6633 162.122 72.7583C162.041 72.1813 162.16 73.0993 162.187 73.3653C162.302 74.4863 162.362 75.6123 162.391 76.7373C162.487 80.4673 162.17 84.2053 161.461 87.8683C159.243 99.3223 152.872 109.391 143.319 116.134C126.49 128.012 103.483 129.343 83.6501 127.794C66.8571 126.482 49.1031 121.384 37.9021 108.036C31.8981 100.881 28.6091 91.6953 27.8141 82.4533C27.5761 79.6843 27.5551 76.8893 27.7751 74.1183C27.8041 73.7473 27.8401 73.3773 27.8811 73.0083C27.9551 72.3473 27.8921 72.8673 27.9261 72.6353C28.5441 68.3683 30.7541 63.8353 32.5591 59.9663C33.1331 58.7353 32.2081 57.5163 30.8651 57.7623C30.8571 57.7633 30.8491 57.7653 30.8411 57.7663C31.4741 58.2483 32.1071 58.7303 32.7401 59.2123C31.3721 48.6753 32.0821 37.8143 33.3571 27.3053C33.9671 22.2743 34.8201 17.2543 36.0451 12.3353C36.7521 9.49727 37.4981 5.88827 39.4251 3.57227C40.4601 2.32827 43.0981 3.40027 44.6381 3.88827C48.2391 5.02927 51.6881 6.66627 55.0811 8.30827C61.9961 11.6563 68.7251 15.4023 75.3661 19.2623C76.4591 19.8973 77.5511 20.5363 78.6341 21.1883C78.4051 20.6233 78.1751 20.0593 77.9451 19.4943C77.9441 19.4973 77.9431 19.4993 77.9421 19.5023C77.5231 20.6173 78.7631 21.6093 79.7871 21.3473C90.0701 18.7183 99.9591 18.7183 110.242 21.3473C111.623 21.7003 112.446 20.3083 111.936 19.1433C111.935 19.1403 111.934 19.1383 111.933 19.1353C111.753 19.8203 111.574 20.5043 111.395 21.1883C115.693 18.6043 120.065 16.1393 124.467 13.7393C131.376 9.97127 138.515 5.98227 146.076 3.67627C147.785 3.15527 149.778 2.38727 150.814 3.84927C152.722 6.54227 153.472 10.2073 154.233 13.3513C156.759 23.7843 157.768 34.6993 157.952 45.4123C158.031 50.0173 157.882 54.6423 157.289 59.2123C157.922 58.7303 158.555 58.2483 159.188 57.7663C159.18 57.7653 159.171 57.7633 159.164 57.7623C157.822 57.5203 156.894 58.7313 157.47 59.9663C159.357 64.0093 160.876 68.1783 162.079 72.4743C162.602 74.3333 165.496 73.5423 164.973 71.6763Z" fill="#8B0702"/>
<path d="M40.3612 5.73119C41.8722 2.97219 59.4682 32.2322 54.9782 34.4252C45.4232 39.0912 41.3492 44.2482 34.4592 53.1502C32.3122 55.9242 35.5802 14.4612 40.3612 5.73119Z" fill="#FE6661"/>
<path d="M104.283 86.5704C103.693 83.0804 98.4281 81.1514 95.0161 81.1514C91.6041 81.1514 86.3401 83.0814 85.7491 86.5704C85.2391 89.5844 90.2801 94.4934 95.0161 94.4934C100.503 94.4944 104.794 89.5844 104.283 86.5704Z" fill="#8B0702"/>
<path d="M147.207 84.1536C147.207 87.5996 144.414 90.3926 140.967 90.3926C137.523 90.3926 134.729 87.5996 134.729 84.1536C134.729 80.7086 137.523 77.9146 140.967 77.9146C144.415 77.9136 147.207 80.7076 147.207 84.1536Z" fill="#FE6661"/>
<path d="M141.366 83.8406C148.004 82.8666 154.642 81.8926 161.281 80.9176C163.189 80.6376 162.375 77.7475 160.483 78.0245C153.845 78.9985 147.207 79.9725 140.568 80.9475C138.66 81.2275 139.475 84.1176 141.366 83.8406Z" fill="#8B0702"/>
<path d="M140.967 88.3303C146.848 89.0883 152.729 89.8454 158.61 90.6034C160.525 90.8504 160.501 87.8474 158.61 87.6034C152.729 86.8454 146.848 86.0883 140.967 85.3303C139.052 85.0833 139.076 88.0863 140.967 88.3303Z" fill="#8B0702"/>
<path d="M122.419 97.0384C117.803 100.804 111.534 99.2734 109.056 93.9324C108.242 92.1794 105.657 93.7034 106.465 95.4474C109.829 102.696 118.56 104.038 124.54 99.1594C126.04 97.9364 123.904 95.8264 122.419 97.0384Z" fill="#8B0702"/>
<path d="M92.1461 111.589C94.9551 112.746 98.2991 113.002 101.279 112.615C107.919 111.754 112.604 107.024 115.316 101.136C116.119 99.3915 113.534 97.8655 112.725 99.6215C110.252 104.991 106.18 109.264 100.036 109.744C97.6891 109.927 95.1351 109.599 92.9441 108.697C91.1541 107.961 90.3831 110.864 92.1461 111.589Z" fill="#8B0702"/>
<path d="M138.225 76.8694C138.225 70.2944 132.894 64.9634 126.318 64.9634C119.742 64.9634 114.413 70.2944 114.413 76.8694C114.413 78.7534 114.861 80.5284 115.641 82.1104C125.482 79.3784 131.515 84.6464 133.277 86.5164C136.27 84.3544 138.225 80.8444 138.225 76.8694Z" fill="#8B0702"/>
<path d="M127.989 71.2984C128.839 73.9494 127.376 76.7874 124.725 77.6344C122.075 78.4834 119.239 77.0214 118.389 74.3694C117.541 71.7184 119.002 68.8824 121.655 68.0334C124.305 67.1854 127.143 68.6474 127.989 71.2984Z" fill="white"/>
<path d="M131.953 77.1454C132.289 78.1934 131.712 79.3154 130.662 79.6494C129.614 79.9864 128.492 79.4074 128.159 78.3604C127.821 77.3114 128.4 76.1904 129.449 75.8544C130.498 75.5194 131.618 76.0974 131.953 77.1454Z" fill="white"/>
<path d="M135.115 86.3825C129.609 79.2445 119.693 78.6125 111.884 81.8535C110.124 82.5835 110.895 85.4875 112.682 84.7465C117.486 82.7525 122.69 82.0225 127.551 84.2395C128.939 84.8725 130.225 85.7375 131.365 86.7475C131.712 87.0545 132.038 87.3855 132.353 87.7255C132.468 87.8495 132.99 88.5005 132.525 87.8975C133.688 89.4045 136.296 87.9135 135.115 86.3825Z" fill="#8B0702"/>
<path d="M42.826 84.1536C42.826 87.5996 45.618 90.3926 49.064 90.3926C52.509 90.3926 55.302 87.5996 55.302 84.1536C55.302 80.7086 52.509 77.9146 49.064 77.9146C45.618 77.9136 42.826 80.7076 42.826 84.1536Z" fill="#FE6661"/>
<path d="M49.4641 80.9477C42.8261 79.9727 36.1881 78.9987 29.5501 78.0247C27.6581 77.7467 26.8441 80.6377 28.7521 80.9177C35.3901 81.8927 42.0281 82.8667 48.6661 83.8407C50.5571 84.1177 51.3721 81.2277 49.4641 80.9477Z" fill="#8B0702"/>
<path d="M49.0651 85.3308C43.1851 86.0888 37.3041 86.8458 31.4241 87.6038C29.5331 87.8478 29.5091 90.8508 31.4241 90.6038C37.3041 89.8458 43.1851 89.0888 49.0651 88.3308C50.9561 88.0868 50.9801 85.0838 49.0651 85.3308Z" fill="#8B0702"/>
<path d="M51.8081 76.8694C51.8081 70.2944 57.1391 64.9634 63.7151 64.9634C70.2891 64.9634 75.6191 70.2944 75.6191 76.8694C75.6191 78.7534 75.1711 80.5284 74.3901 82.1104C64.5501 79.3784 58.5181 84.6464 56.7541 86.5164C53.7641 84.3544 51.8081 80.8444 51.8081 76.8694Z" fill="#8B0702"/>
<path d="M62.0411 71.2984C61.1931 73.9494 62.6561 76.7874 65.3061 77.6344C67.9581 78.4834 70.7941 77.0214 71.6431 74.3694C72.4911 71.7184 71.0301 68.8824 68.3761 68.0334C65.7281 67.1854 62.8891 68.6474 62.0411 71.2984Z" fill="white"/>
<path d="M58.0801 77.1454C57.7441 78.1934 58.3221 79.3154 59.3701 79.6494C60.4191 79.9864 61.5411 79.4074 61.8761 78.3604C62.2111 77.3114 61.6331 76.1904 60.5861 75.8544C59.5351 75.5194 58.4151 76.0974 58.0801 77.1454Z" fill="white"/>
<path d="M57.5091 87.8953C57.0521 88.4873 58.2411 87.1453 58.4631 86.9343C59.5321 85.9183 60.7691 85.1213 62.0711 84.4393C66.9201 81.9013 72.4911 82.7283 77.3501 84.7453C79.1371 85.4873 79.9081 82.5833 78.1481 81.8523C70.3391 78.6113 60.4231 79.2423 54.9181 86.3813C53.7371 87.9133 56.3461 89.4043 57.5091 87.8953Z" fill="#8B0702"/>
<path d="M36.5682 140.733C36.5682 140.733 9.65817 105.41 5.44517 99.8796C1.23217 94.3496 -0.817824 83.5086 5.61518 77.7606C12.1372 71.9316 21.6862 76.5126 25.8992 82.0416C30.1122 87.5726 58.1092 124.323 58.1092 124.323L36.5682 140.733Z" fill="white"/>
<path d="M27.6982 86.3455C22.5922 92.8685 23.6512 102.227 30.0632 107.248C34.7792 110.938 41.0702 111.246 46.1042 108.562C43.6632 105.357 33.8542 92.4815 28.4862 85.4355C28.2162 85.7305 27.9482 86.0265 27.6982 86.3455Z" fill="#261E1C"/>
<path d="M37.8631 139.975C29.7481 129.324 21.6341 118.673 13.5201 108.022C9.22515 102.383 3.87415 96.9105 3.08615 89.5505C2.42015 83.3385 5.78015 76.8215 12.6131 76.5505C17.6921 76.3485 22.3542 79.8425 25.2782 83.6835C35.7892 97.4825 46.3021 111.281 56.8141 125.079C57.9701 126.596 60.5781 125.104 59.4051 123.564C51.3411 112.98 43.2781 102.395 35.2141 91.8105C31.3411 86.7265 27.6351 80.4425 22.3441 76.7285C17.9301 73.6295 12.2531 72.5745 7.27215 74.8235C2.37415 77.0355 0.168149 82.5605 0.00914863 87.5995C-0.189851 93.9285 2.88515 98.9745 6.54515 103.78C10.1561 108.52 13.7671 113.26 17.3781 118C23.3431 125.83 29.3081 133.659 35.2731 141.489C36.4291 143.007 39.0361 141.516 37.8631 139.975Z" fill="#8B0702"/>
<path d="M13.1381 82.4913C14.1231 83.7833 13.2191 85.2763 12.0421 86.0603C10.9341 86.7983 8.81905 86.3783 8.09805 85.2103C7.39105 84.0653 8.13705 82.2743 9.24405 81.7093C10.4691 81.0863 12.2751 81.3573 13.1381 82.4913Z" fill="#FE6661"/>
<path d="M20.3681 87.3365C23.3141 88.9715 22.8391 92.5595 21.2551 95.0285C19.7611 97.3515 15.3981 98.3145 13.0551 96.6955C10.7591 95.1085 10.6871 91.0885 12.3221 89.0915C14.1271 86.8865 17.7821 85.8995 20.3681 87.3365Z" fill="#FE6661"/>
<path d="M20.8061 81.0884C21.5971 82.5084 20.4881 83.8584 19.2111 84.4654C18.0081 85.0374 15.9761 84.3204 15.4291 83.0614C14.8931 81.8274 15.8871 80.1614 17.0641 79.7604C18.3651 79.3164 20.1131 79.8434 20.8061 81.0884Z" fill="#FE6661"/>
<path d="M5.09211 93.0587C6.25111 94.1987 7.8461 93.4887 8.7711 92.4177C9.6421 91.4097 9.4911 89.2607 8.4221 88.3977C7.3751 87.5537 5.5051 88.0687 4.8051 89.0967C4.0321 90.2347 4.07611 92.0597 5.09211 93.0587Z" fill="#FE6661"/>
<path d="M131.54 124.568C131.54 124.568 158.376 88.4243 162.521 82.8413C166.665 77.2613 176.511 72.2833 183.819 76.8693C191.228 81.5173 189.476 91.9633 185.332 97.5453C181.187 103.127 153.282 140.711 153.282 140.711L131.54 124.568Z" fill="white"/>
<path d="M183.819 76.87C184.096 77.045 184.357 77.228 184.609 77.419C183.499 81.246 181.615 85.106 178.947 88.697C170.859 99.592 158.36 104.342 149.403 100.51C154.109 94.172 160.14 86.049 162.521 82.842C166.665 77.261 176.511 72.284 183.819 76.87Z" fill="#F4B774"/>
<path d="M132.835 125.325C140.781 114.623 148.727 103.921 156.673 93.2191C161.114 87.2371 165.052 80.2221 172.382 77.4901C178.413 75.2411 185.433 77.3781 187.123 84.0231C188.273 88.5441 186.418 93.5811 183.74 97.1881C173.155 111.443 162.571 125.699 151.986 139.955C150.831 141.51 153.437 143.003 154.577 141.469C162.47 130.839 170.362 120.209 178.255 109.579C181.901 104.668 186.575 99.6681 188.968 93.9881C190.818 89.5981 190.971 84.4331 188.863 80.1271C186.456 75.2091 180.648 73.1481 175.494 73.6951C168.324 74.4561 163.343 79.2321 159.277 84.7081C155.631 89.6191 151.985 94.5301 148.338 99.4411C142.306 107.565 136.275 115.688 130.243 123.812C129.089 125.367 131.695 126.86 132.835 125.325Z" fill="#8B0702"/>
<path d="M176.485 81.8061C175.524 83.1151 176.456 84.5931 177.647 85.3551C178.768 86.0741 180.875 85.6141 181.573 84.4341C182.26 83.2771 181.481 81.4991 180.365 80.9551C179.128 80.3521 177.328 80.6571 176.485 81.8061Z" fill="#FE6661"/>
<path d="M169.345 86.7811C166.43 88.4691 166.971 92.0491 168.597 94.4891C170.134 96.7861 174.514 97.6681 176.827 96.0061C179.095 94.3791 179.093 90.3581 177.422 88.3911C175.576 86.2191 171.904 85.2991 169.345 86.7811Z" fill="#FE6661"/>
<path d="M168.793 80.5423C168.028 81.9763 169.161 83.3063 170.449 83.8913C171.661 84.4423 173.68 83.6883 174.204 82.4173C174.718 81.1733 173.696 79.5263 172.51 79.1473C171.201 78.7263 169.464 79.2863 168.793 80.5423Z" fill="#FE6661"/>
<path d="M184.722 92.2253C183.584 93.3853 181.977 92.7053 181.032 91.6523C180.143 90.6593 180.255 88.5093 181.308 87.6273C182.339 86.7653 184.218 87.2443 184.935 88.2603C185.731 89.3833 185.72 91.2083 184.722 92.2253Z" fill="#FE6661"/>
</svg>
